<svg width="20" height="21" viewBox="0 0 20 21" fill="none" xmlns="http://www.w3.org/2000/svg">
<path fill-rule="evenodd" clip-rule="evenodd" d="M14.0353 5.71999C13.0028 4.73524 11.6249 4.19878 10.1992 4.22082C7.59036 4.22082 5.37468 5.98087 4.58467 8.35087V8.35092C4.16578 9.59288 4.16578 10.9377 4.58466 12.1797H4.58833C5.38201 14.546 7.59403 16.3061 10.2029 16.3061C11.5496 16.3061 12.7057 15.9616 13.6018 15.3532V15.3507C14.6563 14.6526 15.3765 13.5539 15.6007 12.312H10.1992V8.46117H19.6315C19.7491 9.12992 19.8042 9.81336 19.8042 10.4931C19.8042 13.5347 18.7172 16.1062 16.8259 17.8478L16.8279 17.8493C15.1707 19.3779 12.8963 20.2635 10.1992 20.2635C6.41821 20.2635 2.96055 18.1323 1.26296 14.7555V14.7555C-0.155365 11.9298 -0.155362 8.60078 1.26297 5.77514H1.26299L1.26296 5.77511C2.96055 2.39462 6.41821 0.263445 10.1992 0.263445C12.6831 0.23405 15.0825 1.16736 16.8904 2.86495L14.0353 5.71999Z" fill="#1D4648"/>
</svg>
