<svg width="12" height="14" viewBox="0 0 12 14" fill="none" xmlns="http://www.w3.org/2000/svg">
<path d="M6.00033 13.6665C6.73366 13.6665 7.33366 13.0665 7.33366 12.3332H4.66699C4.66699 13.0665 5.26699 13.6665 6.00033 13.6665ZM10.0003 9.6665V6.33317C10.0003 4.2865 8.91366 2.57317 7.00033 2.11984V1.6665C7.00033 1.11317 6.55366 0.666504 6.00033 0.666504C5.44699 0.666504 5.00033 1.11317 5.00033 1.6665V2.11984C3.09366 2.57317 2.00033 4.27984 2.00033 6.33317V9.6665L0.666992 10.9998V11.6665H11.3337V10.9998L10.0003 9.6665ZM8.66699 10.3332H3.33366V6.33317C3.33366 4.67984 4.34033 3.33317 6.00033 3.33317C7.66033 3.33317 8.66699 4.67984 8.66699 6.33317V10.3332Z" fill="#0C1116"/>
</svg>
