<svg width="17" height="14" viewBox="0 0 17 14" fill="none" xmlns="http://www.w3.org/2000/svg">
<path d="M5.53168 13.5005C11.5694 13.5005 14.8718 8.49823 14.8718 4.16031C14.8718 4.01823 14.8718 3.87679 14.8622 3.73599C15.5047 3.27129 16.0593 2.69591 16.5 2.03679C15.9009 2.30239 15.2654 2.47649 14.6146 2.55327C15.2999 2.14306 15.8128 1.49779 16.0578 0.737586C15.4134 1.11999 14.7084 1.38947 13.9733 1.53439C13.4783 1.0081 12.8237 0.659614 12.1108 0.542842C11.3978 0.426071 10.6663 0.547529 10.0293 0.888421C9.39234 1.22931 8.88548 1.77064 8.58716 2.42862C8.28884 3.0866 8.21569 3.82456 8.37904 4.52831C7.07393 4.46284 5.79717 4.12366 4.63164 3.53279C3.4661 2.94192 2.43784 2.11256 1.6136 1.09855C1.19382 1.82121 1.06525 2.6767 1.25407 3.49083C1.44288 4.30496 1.93489 5.01652 2.62992 5.48063C2.10749 5.46532 1.59643 5.32438 1.14 5.06975V5.11135C1.14021 5.86925 1.40257 6.60374 1.88258 7.19026C2.36259 7.77677 3.03071 8.17919 3.7736 8.32927C3.29032 8.46109 2.78325 8.48036 2.29136 8.38559C2.50121 9.0378 2.90962 9.60814 3.45949 10.0169C4.00937 10.4256 4.67322 10.6523 5.35824 10.6653C4.67763 11.2002 3.89821 11.5958 3.06458 11.8293C2.23096 12.0627 1.35948 12.1296 0.5 12.0259C2.00122 12.9893 3.74795 13.5002 5.53168 13.4979" fill="#1DA1F2"/>
</svg>
