<svg width="19" height="18" viewBox="0 0 19 18" fill="none" xmlns="http://www.w3.org/2000/svg">
<g clip-path="url(#clip0_441_1810)">
<path d="M10.728 0.554199C12.1877 0.648017 13.6035 0.900381 14.9293 1.58111C17.8366 3.07493 18.772 6.10838 18.435 8.55638C17.8769 12.6087 15.2937 15.1237 11.8752 16.904C9.52462 18.128 7.07899 18.3826 4.56856 17.3818C1.84856 16.2989 0.118769 13.7331 0.0726798 10.7986C0.0402732 8.73456 0.575343 6.83856 1.55834 5.05165C1.56915 4.96656 1.58067 4.88147 1.59147 4.79638C1.52738 4.80511 1.46328 4.81384 1.39991 4.82256H0.962062C2.19351 3.75129 3.29894 2.79056 4.40365 1.82984C4.42381 1.98547 4.44325 2.14111 4.47926 2.42184C4.92143 2.09674 5.26638 1.84365 5.61133 1.59056C5.87779 1.51493 6.14064 1.42474 6.4107 1.36656C7.57446 1.11638 8.73965 0.876381 9.90485 0.632017C10.1792 0.605836 10.4536 0.580381 10.728 0.554199ZM10.2239 1.44511C8.1909 1.50329 6.39629 2.26402 4.56064 2.97529C3.17003 3.5142 2.39804 4.51711 1.90329 5.79056C1.47985 6.88002 1.06864 8.01602 0.922454 9.16656C0.460839 12.7891 2.35555 15.8386 5.80577 16.76C7.53773 17.2226 9.19551 17.0124 10.8036 16.3033C13.7972 14.9826 16.142 12.9767 17.1776 9.73965C18.1448 6.71783 17.0141 3.07274 13.1419 1.96293C12.1971 1.69238 11.1975 1.61311 10.2232 1.44584L10.2239 1.44511Z" fill="#1E1E1E"/>
<path d="M5.61101 1.58989C5.26606 1.84298 4.92183 2.09607 4.47894 2.42116C4.44293 2.14043 4.42348 1.9848 4.40332 1.82916C5.13427 1.10698 6.04886 0.721524 6.99225 0.38916C7.00017 0.479342 7.00881 0.569524 7.01674 0.659706L7.01169 0.663342C6.94904 0.696069 6.88639 0.728069 6.82446 0.760797C6.44278 0.933887 6.05678 1.0968 5.68518 1.29025C5.62541 1.32152 5.63333 1.48734 5.61029 1.59061L5.61101 1.58989Z" fill="#1E1E1E"/>
<path d="M7.01765 0.659475C7.00973 0.569293 7.00109 0.479111 6.99316 0.388929C8.26134 -0.0888888 9.5144 -0.226343 10.7278 0.553293C10.4535 0.579475 10.1791 0.604929 9.90472 0.631111C10.0235 0.22602 9.7002 0.29002 9.52088 0.311111C8.68479 0.41002 7.8523 0.540202 7.01765 0.658748V0.659475Z" fill="#1E1E1E"/>
<path d="M7.01243 0.663086C6.94978 0.695813 6.88713 0.727813 6.8252 0.76054C6.88785 0.727813 6.9505 0.695813 7.01243 0.663086Z" fill="#1E1E1E"/>
<path d="M4.58519 8.35481C4.71481 8.58172 4.84516 8.8079 4.97478 9.03481C5.59627 10.1214 6.18391 11.2305 6.85293 12.2864C7.27134 12.9475 7.51547 12.9614 8.03037 12.3548C9.40945 10.7323 10.7424 9.06972 12.0963 7.42536C12.6516 6.75118 13.2097 6.08063 13.7721 5.41227C13.9039 5.2559 14.0357 5.03772 14.2064 4.99045C14.4951 4.91045 14.9287 4.8159 15.0914 4.96427C15.2607 5.11845 15.1944 5.55118 15.2002 5.86245C15.2016 5.94245 15.0893 6.029 15.0216 6.10609C13.093 8.30681 11.1702 10.5134 9.22798 12.7017C8.92479 13.0428 8.55464 13.3388 8.17296 13.589C7.57884 13.9774 7.06753 13.9155 6.60952 13.3621C6.25449 12.9337 5.9333 12.4508 5.70934 11.9417C5.24988 10.8959 4.86316 9.81809 4.45556 8.74972C4.41811 8.65227 4.45052 8.52718 4.45052 8.41518C4.49589 8.39554 4.54054 8.37518 4.58591 8.35554L4.58519 8.35481Z" fill="#1E1E1E"/>
</g>
<defs>
<clipPath id="clip0_441_1810">
<rect width="18.4286" height="18" fill="white" transform="translate(0.0712891)"/>
</clipPath>
</defs>
</svg>
