<svg width="29" height="32" viewBox="0 0 29 32" fill="none" xmlns="http://www.w3.org/2000/svg">
<g clip-path="url(#clip0_441_1908)">
<path d="M4.81258 15.6769C4.46954 15.3673 4.2298 15.1519 3.93638 14.8875L4.15222 14.082C4.50421 14.0431 4.81826 14.0094 5.12879 13.9747L6.19198 10.0068C5.96261 9.79036 5.72192 9.62083 5.55807 9.39503C5.39711 9.17257 5.31448 8.89295 5.21573 8.67819C5.53414 8.28955 6.03012 8.03944 6.70366 7.92786C7.31329 5.93023 7.76287 3.86665 8.58516 1.97852C9.20514 1.64507 9.76539 1.65684 10.3534 1.8003C15.2371 2.9872 20.1236 4.16843 25.0121 5.33739C25.7631 5.51685 26.5283 5.63862 27.2901 5.76845C28.1108 5.90894 28.3653 6.18209 28.2113 7.04389C27.9111 8.72863 27.6058 10.4184 27.1938 12.0783C25.9767 16.9734 24.7196 21.8577 23.4484 26.7383C23.1829 27.7573 22.7975 28.7441 22.4556 29.7426C22.3814 29.9584 22.2783 30.169 22.1605 30.3642C21.563 31.357 21.2996 31.4414 20.1535 31.2688C16.4532 30.7128 12.8451 29.7986 9.32162 28.5496C7.49387 27.901 5.66837 27.244 3.69458 26.5384C3.56599 26.5667 3.25805 26.6341 3.00119 26.6895C2.37541 26.3719 2.41425 25.893 2.52822 25.383C2.78018 24.2592 3.02658 23.1327 3.27395 22.0166C2.96479 21.7122 2.69649 21.4481 2.43108 21.1874L2.7843 19.8692C3.10169 19.903 3.37835 19.9336 3.66388 19.964L4.81258 15.6769ZM4.52125 22.3854C4.28784 23.6705 4.04974 24.9824 3.8014 26.3467C9.47543 27.6416 14.9848 29.0948 20.6659 29.6576C21.5957 27.9187 22.0729 26.1046 22.5359 24.2829C23.55 20.2864 24.5774 16.2923 25.6106 12.2997C25.7673 11.6961 26.0067 11.1133 26.1766 10.512C26.4709 9.46999 26.7406 8.42139 27.0403 7.30273C26.7436 7.15406 26.4472 6.94782 26.1184 6.8533C25.1836 6.58361 24.2434 6.32913 23.2922 6.12549C21.5804 5.75905 19.8526 5.46646 18.1445 5.08178C15.5495 4.49789 12.9678 3.85481 10.3757 3.25506C10.0209 3.1728 9.64208 3.19426 9.2489 3.16577C8.64337 4.96467 8.07659 6.64714 7.52434 8.28482C7.78562 8.63152 7.99855 8.91403 8.23481 9.22712C8.13443 9.52174 8.04228 9.79039 7.95045 10.0578C7.58426 10.1403 7.27952 10.2098 6.92102 10.2918C6.61879 11.6173 6.31986 12.9258 6.03748 14.1631C6.64878 14.7198 6.82423 15.2723 6.56382 15.8208C6.28709 15.894 5.98364 15.9728 5.70424 16.0465C5.42528 17.5627 5.1588 19.0182 4.91653 20.3316C5.14441 20.85 5.32009 21.2481 5.51919 21.6998C5.12698 21.9687 4.84004 22.1647 4.52071 22.3827L4.52125 22.3854Z" fill="#1D4648"/>
<path d="M21.7858 20.3401C20.8282 21.1621 21.2331 22.572 20.3753 23.4733C19.8884 23.4274 19.4069 23.4136 18.9365 23.3298C18.4629 23.2439 18.0029 23.0886 17.6089 22.9831C17.2142 23.1579 16.9224 23.2872 16.5877 23.4358C16.468 23.2756 16.3613 23.133 16.2157 22.9377C16.566 22.6793 16.8728 22.4515 17.2057 22.2064C17.3978 21.2779 17.3226 20.2368 18.1795 19.4237C19.3671 19.5024 20.5314 19.9412 21.7866 20.3416L21.7858 20.3401ZM18.1564 21.8335C19.0339 21.3999 19.7892 21.0271 20.6392 20.6067L18.406 20.0083C18.3239 20.6063 18.2514 21.1403 18.1564 21.8335ZM20.4969 21.1988C19.761 21.6498 19.2122 21.9857 18.6634 22.3216L18.716 22.4971C19.149 22.5273 19.5821 22.5575 20.052 22.5912C20.1797 22.1899 20.2984 21.822 20.4966 21.2L20.4969 21.1988Z" fill="#1D4648"/>
<path d="M20.1144 10.8627C22.5071 11.1528 22.5291 10.9858 23.2298 11.7717C23.5565 11.6722 23.8926 11.5702 24.2279 11.4666L24.322 11.6045C24.1392 11.7272 23.9625 11.8643 23.7709 11.968C23.5437 12.0915 23.3014 12.1867 23.2268 12.2206C22.7018 13.1072 22.9115 14.1075 22.1209 14.6873C20.8844 14.8145 19.7299 14.5884 18.5264 13.9855C18.8143 13.7295 19.0212 13.5454 19.2428 13.3486C19.5761 12.5425 19.5079 11.5597 20.1171 10.8621L20.1144 10.8627ZM20.3907 11.4683L19.9315 13.1822C20.8159 12.7979 21.5679 12.4703 22.5428 12.045L20.3907 11.4683ZM22.0832 12.8287C21.4841 13.155 21.0649 13.3834 20.6443 13.6127L20.6964 13.7945C21.034 13.7953 21.3727 13.7964 21.7049 13.7983C21.8233 13.4931 21.9147 13.2601 22.0817 12.8296L22.0832 12.8287Z" fill="#1D4648"/>
<path d="M17.9267 11.911C17.822 12.2263 17.7571 12.4216 17.7067 12.572C17.5681 12.6143 17.504 12.656 17.4468 12.6484C14.8102 12.3044 12.2722 11.5309 9.7179 10.8375C9.04235 10.6539 9.00159 10.552 8.86115 9.77785C9.06766 9.74095 9.2904 9.63411 9.47481 9.67968C11.9806 10.305 14.4824 10.9497 16.9831 11.5942C17.2577 11.6652 17.5225 11.7733 17.927 11.9099L17.9267 11.911Z" fill="#1D4648"/>
<path d="M7.23564 17.5659L7.4438 16.7891C7.61386 16.7565 7.7124 16.7086 7.80016 16.7245C8.65925 16.8816 9.51971 17.0289 10.372 17.2163C12.014 17.5794 13.6522 17.962 15.2905 18.3485C15.6532 18.4341 16.0944 18.4717 16.0394 19.0628C15.7592 19.3887 15.4056 19.3067 15.0576 19.2365C12.872 18.7944 10.6865 18.3522 8.50313 17.9017C8.10309 17.8189 7.71074 17.6932 7.23564 17.5659Z" fill="#1D4648"/>
<path d="M9.37871 6.00322C9.75252 5.96759 10.0446 5.86525 10.2922 5.92903C12.7037 6.55342 15.1087 7.2068 17.5606 7.86379C17.5737 8.00308 17.589 8.15319 17.6089 8.36093C17.4059 8.37059 17.2487 8.41172 17.1068 8.38139C15.2385 7.98324 13.3733 7.57313 11.5062 7.1702C10.9997 7.06138 10.487 6.98036 9.98375 6.85449C9.60819 6.76026 9.61309 6.73724 9.37754 6.0029L9.37871 6.00322Z" fill="#1D4648"/>
<path d="M11.4856 20.5855C11.639 20.013 12.0187 19.993 12.3636 20.056C13.4076 20.2473 14.4454 20.4716 15.4811 20.7081C15.6023 20.7355 15.6885 20.9123 15.7881 21.0158C15.428 21.5598 14.9249 21.5467 14.4606 21.4684C13.4342 21.2959 12.389 21.1465 11.486 20.5843L11.4856 20.5855Z" fill="#1D4648"/>
<path d="M11.9294 15.6406C10.7627 16.1094 9.76107 15.4119 8.68289 15.3715C8.53815 15.366 8.40264 15.1568 8.23518 15.0197C8.65774 14.4258 9.20623 14.7213 9.59472 14.8049C10.3974 14.9752 11.3205 14.8933 11.9291 15.6418L11.9294 15.6406Z" fill="#1D4648"/>
<path d="M13.1516 9.11749C13.1046 9.17535 13.0376 9.3124 12.9943 9.30464C11.9274 9.13278 10.8616 8.95223 9.80032 8.74985C9.71288 8.73282 9.65498 8.55847 9.60129 8.48132C9.68677 8.10584 9.91143 8.02001 10.1957 8.09746C11.1564 8.36 12.1142 8.63329 13.0707 8.91136C13.1071 8.92113 13.1174 9.0238 13.1507 9.11598L13.1516 9.11749Z" fill="#1D4648"/>
<path d="M7.55974 19.4192C9.08113 19.2261 9.82797 19.407 10.2329 20.0266C9.53286 20.3437 8.84308 20.1192 8.17367 20.0397C7.99054 20.0176 7.84184 19.7164 7.55856 19.4189L7.55974 19.4192Z" fill="#1D4648"/>
</g>
<defs>
<clipPath id="clip0_441_1908">
<rect width="22.2857" height="26.8571" fill="white" transform="translate(7.42676 0.430664) rotate(15)"/>
</clipPath>
</defs>
</svg>
