<svg width="30" height="27" viewBox="0 0 30 27" fill="none" xmlns="http://www.w3.org/2000/svg">
<path d="M10.0861 12.7279C10.8025 13.7421 11.5119 14.7621 12.2377 15.77C12.6159 16.2946 13.0228 16.7987 13.4396 17.3402C13.7049 17.1748 13.9364 17.0329 14.1648 16.8868C14.2345 16.8424 14.2995 16.7891 14.3618 16.7338C15.4655 15.7668 16.6832 15.0951 18.1353 14.6813C19.984 14.1543 21.7629 13.3591 23.5309 12.5864C24.8561 12.0074 26.1155 11.2813 27.4044 10.6198C27.4641 10.5888 27.5181 10.546 27.561 10.4795C24.2673 12.0676 20.9091 13.4861 17.2931 14.4691C17.4645 14.3209 17.581 14.2149 17.7027 14.116C20.6077 11.7711 23.6422 9.61331 26.9087 7.79331C27.0717 7.70296 27.3324 7.69014 27.5126 7.74821C27.9605 7.8918 28.3837 8.10692 28.8243 8.27553C29.6808 8.60236 29.9463 9.05656 29.8258 10.1226C29.7432 10.8493 29.4839 11.5747 29.1967 12.256C27.9408 15.24 26.6326 18.2021 25.3707 21.1839C24.7779 22.5852 24.2415 24.0101 23.6888 25.4281C23.3291 26.3509 23.0407 26.5773 22.0837 26.3014C19.5126 25.5607 16.9386 24.8164 14.4061 23.9565C10.3584 22.581 6.39483 20.9861 2.55938 19.0963C1.84517 18.7445 1.16255 18.3049 0.528386 17.8234C0.149561 17.5359 0.0786503 17.0397 0.227778 16.5657C0.780465 14.8112 1.32138 13.053 1.902 11.3084C2.83308 8.51206 3.78964 5.7252 4.74271 2.9365C4.84528 2.63699 4.98279 2.34624 5.13151 2.06564C5.22871 1.88312 5.30526 1.64105 5.61908 1.71048C5.67371 1.72248 5.78779 1.58581 5.83352 1.4966C6.17561 0.834432 6.72195 0.66802 7.40541 0.846546C9.51895 1.39754 11.671 1.83899 13.735 2.53548C17.0195 3.64332 20.2449 4.92205 23.495 6.12925C23.5976 6.16703 23.6933 6.22103 23.7097 6.22876C20.5217 8.50723 17.3094 10.8031 14.0785 13.1131C13.3747 11.937 12.6392 10.723 11.9192 9.50022C11.3371 8.51243 11.2412 8.47677 10.2381 8.99106C10.0675 9.07864 9.89329 9.15884 9.61947 9.29068C8.69234 7.20265 7.77552 5.13923 6.85948 3.07569L6.76906 3.10996C7.59571 5.20919 8.42327 7.30907 9.26999 9.4592C9.2936 9.4117 9.2884 9.44434 9.26974 9.45765C8.46131 10.0357 8.43575 10.1161 8.94986 10.958C9.31602 11.5576 9.71137 12.14 10.0928 12.7301C9.94614 12.7725 9.79597 12.8027 9.65569 12.86C8.54543 13.3134 7.42845 13.7495 6.3317 14.2325C4.61681 14.9881 2.91489 15.7749 1.2103 16.5551C1.03677 16.6344 0.859311 16.7342 0.728005 16.868C0.65856 16.9387 0.687296 17.1044 0.672295 17.2261C0.781094 17.212 0.903029 17.2252 0.996394 17.1794C1.19198 17.083 1.36499 16.9402 1.56161 16.8453C4.40108 15.4702 7.24363 14.0995 10.0845 12.7282L10.0861 12.7279ZM18.2772 14.8806L18.1933 14.9155C18.2093 14.9662 18.2201 15.0186 18.2413 15.0669C19.1237 17.0595 20.007 19.0526 20.8902 21.045C21.4358 22.2765 21.9763 23.5103 22.5294 24.7382C22.6318 24.9653 22.5989 25.3262 23.0077 25.3041C22.9874 25.0663 23.0319 24.7983 22.9365 24.5955C21.7834 22.1512 20.611 19.7163 19.4407 17.2795C19.0561 16.4783 18.6647 15.6798 18.2772 14.8806Z" fill="#1E1E1E"/>
</svg>
