<svg width="17" height="22" viewBox="0 0 17 22" fill="none" xmlns="http://www.w3.org/2000/svg">
<g clip-path="url(#clip0_431_11389)">
<path d="M9.14311 6.33768C9.35394 6.05777 9.55575 5.77071 9.78039 5.50152C9.85527 5.41162 9.98963 5.3677 10.0964 5.30283C10.1383 5.42235 10.2307 5.55056 10.2116 5.66038C10.1755 5.86622 10.0751 6.06135 10.0013 6.26106C9.15373 7.32656 7.96679 7.57787 6.66249 7.54722C6.40493 7.56663 6.23074 7.63355 6.25145 7.9487C6.31836 8.95597 6.36669 9.96478 6.40758 10.9736C6.4198 11.2673 6.51433 11.4032 6.8489 11.3817C7.49521 11.3398 8.1447 11.302 8.79154 11.3158C9.65825 11.3337 10.5249 11.3899 11.3901 11.4532C12.0082 11.4987 12.6237 11.5778 13.2392 11.6509C13.8924 11.728 14.5446 11.8154 15.1973 11.8981C15.1835 11.9752 15.1691 12.0519 15.1553 12.129C12.3906 12.1489 9.62054 12.0258 6.86802 12.414C6.60833 12.4508 6.53716 12.5269 6.55256 12.7583C6.58814 13.2936 6.62904 13.8299 6.63169 14.3662C6.64178 16.1565 6.6386 17.9463 6.63329 19.7366C6.63275 19.9593 6.58868 20.182 6.56478 20.4042C6.51167 20.3322 6.42829 20.2663 6.41183 20.1872C6.35979 19.944 6.33907 19.6953 6.29606 19.4506C6.00185 17.7722 5.64603 16.1024 5.61364 14.3902C5.60461 13.9315 5.53451 13.4739 5.50264 13.0152C5.48193 12.7174 5.28915 12.6168 5.0284 12.6587C4.29075 12.7767 3.55681 12.9181 2.82128 13.0499C2.637 13.0699 2.45219 13.0898 2.26791 13.1097C2.23233 12.842 2.19675 12.5739 2.16117 12.3062C2.32208 12.248 2.48299 12.1903 2.64391 12.1326C3.23552 11.9635 3.82712 11.7944 4.43573 11.6202C4.41395 11.3117 4.38156 11.0058 4.372 10.6998C4.33801 9.61387 4.58549 8.57646 4.99282 7.57225C5.09478 7.32095 5.07035 7.14115 4.82128 7.00528C4.63382 6.91998 4.44582 6.83468 4.25835 6.74886C3.73153 6.30601 3.16329 5.90045 2.68799 5.41162C1.95564 4.65566 1.22224 3.88131 0.935462 2.83726C0.892977 2.68198 0.870141 2.51955 0.860051 2.35916C0.835622 1.96535 0.980072 1.63333 1.35076 1.44894C1.7156 1.26761 2.0985 1.36721 2.36775 1.6129C2.93971 2.13442 3.52282 2.66206 3.99441 3.26479C4.61948 4.06417 5.14258 4.93761 5.69595 5.75896C5.70604 4.80277 5.95724 3.8384 6.31093 2.89242C6.57434 2.18805 6.93652 1.54701 7.51061 1.03265C7.62213 0.932534 7.75596 0.842125 7.8967 0.787471C8.42511 0.581113 8.84518 0.819139 8.81332 1.37028C8.78145 1.92448 8.67099 2.48379 8.51964 3.02114C8.2079 4.12546 7.71348 5.15572 7.00928 6.08688C6.92006 6.20488 6.86695 6.34841 6.79685 6.48019C6.66674 6.63445 6.5361 6.7882 6.40599 6.94245C6.36297 7.04819 6.25835 7.18099 6.29287 7.25199C6.33005 7.32963 6.49308 7.37969 6.6062 7.39041C7.24242 7.45017 7.82819 7.30409 8.35554 6.95165C8.61842 6.74733 8.88129 6.54251 9.14417 6.33819L9.14311 6.33768ZM5.15001 8.66585C5.14523 8.57799 5.14045 8.49065 5.13567 8.40279C4.70073 9.34009 4.3396 10.2835 4.67312 11.3127C4.731 11.4915 4.89723 11.6381 5.01353 11.7995C5.04539 11.7827 5.07726 11.7663 5.10912 11.7495C5.11762 11.6785 5.12558 11.607 5.13408 11.536C5.36775 11.539 5.4044 11.4052 5.39218 11.2157C5.35713 10.6681 5.34385 10.1195 5.29818 9.573C5.27322 9.26909 5.201 8.96823 5.15001 8.66585ZM5.63169 6.11906C5.5207 5.90709 5.46175 5.73751 5.35554 5.60164C4.825 4.92536 4.31889 4.22558 3.73153 3.59782C3.22436 3.05588 2.62479 2.59259 2.05124 2.11092C1.96467 2.03839 1.79632 2.05627 1.66568 2.03226C1.63806 2.17375 1.54991 2.33669 1.59452 2.45212C1.71985 2.77699 1.83934 3.13454 2.07035 3.38635C2.72144 4.09533 3.39696 4.79051 4.12452 5.42542C4.5122 5.76356 4.95352 6.116 5.63222 6.11855L5.63169 6.11906ZM5.90307 5.75794C7.02893 4.48914 7.8574 3.08601 8.06504 1.40041C6.60886 2.51342 6.1856 4.1035 5.90307 5.75794Z" fill="#98A2B3"/>
<path d="M6.66265 7.54755C7.96695 7.57819 9.15388 7.32689 10.0015 6.26138C11.131 6.23789 12.2606 6.19447 13.3897 6.19907C14.0641 6.20162 14.7407 6.26036 15.412 6.33085C15.7912 6.37069 16.1698 6.46315 16.5304 6.58318C16.6292 6.61638 16.7269 6.84317 16.712 6.96831C16.6302 7.65021 16.5097 8.32803 16.4093 9.00789C16.1762 10.5903 15.9207 12.1702 15.7237 13.7567C15.4529 15.9423 15.225 18.1326 14.9893 20.3223C14.9754 20.4495 15.0275 20.6033 15.0992 20.7146C15.2665 20.9746 15.2091 21.1784 14.8947 21.2484C14.7211 21.2867 14.5309 21.2944 14.353 21.2755C11.6563 20.9899 8.95367 20.9281 6.24523 21.0752C6.11618 21.0824 5.98554 21.0701 5.85596 21.0671C5.75293 20.9751 5.6499 20.8832 5.54688 20.7917C5.91172 20.732 6.27603 20.6717 6.64087 20.6119C7.68548 20.5144 8.7285 20.3663 9.77576 20.331C11.2144 20.2825 12.6557 20.3188 14.1146 20.3188C14.1454 20.1849 14.1815 20.0286 14.2176 19.8728C14.2213 19.8228 14.225 19.7732 14.2288 19.7232C14.2516 19.5224 14.2744 19.3222 14.2973 19.1215C14.301 19.0714 14.3047 19.0214 14.3079 18.9713C14.3286 18.7956 14.3493 18.6199 14.3695 18.4442C14.3753 18.3696 14.3812 18.2945 14.387 18.2199C14.4072 18.0442 14.4269 17.8685 14.447 17.6923C14.4534 17.6177 14.4598 17.5426 14.4662 17.468C14.489 17.2918 14.5113 17.1156 14.5341 16.9399C14.5384 16.8909 14.5426 16.8413 14.5469 16.7923C14.5931 16.4659 14.6387 16.139 14.685 15.8126L14.6998 15.6634C14.7476 15.337 14.7949 15.0112 14.8427 14.6848C14.848 14.6352 14.8533 14.5857 14.8581 14.5361C14.8729 14.4355 14.8878 14.3349 14.9032 14.2343C14.9138 14.1597 14.925 14.0846 14.9356 14.01C14.95 13.9094 14.9648 13.8088 14.9792 13.7081C14.9908 13.6336 15.0031 13.559 15.0147 13.4839C15.062 13.0324 15.1087 12.5803 15.156 12.1288C15.1698 12.0517 15.1842 11.975 15.198 11.8979C15.4895 10.3303 15.7811 8.76271 16.079 7.16241C15.8751 7.13381 15.6993 7.09192 15.5219 7.08682C13.7689 7.03676 12.0158 6.98874 10.2622 6.95605C10.1151 6.9535 9.94624 7.03829 9.82037 7.12666C8.84321 7.8106 7.78214 7.86934 6.66318 7.54755H6.66265Z" fill="#98A2B3"/>
<path d="M5.54769 20.7918C5.65072 20.8837 5.75374 20.9757 5.85677 21.0671C5.19719 21.108 4.5376 21.1545 3.87695 21.1872C3.6385 21.1989 3.46113 21.1146 3.4059 20.8505C3.194 19.8361 2.91041 18.8319 2.7633 17.8093C2.54769 16.3117 2.42661 14.8018 2.26623 13.297C2.25985 13.2352 2.26729 13.1719 2.26835 13.1096C2.45263 13.0896 2.63744 13.0697 2.82172 13.0498C3.11965 14.6843 3.41545 16.3194 3.71498 17.9539C3.87961 18.8508 4.05274 19.7462 4.21843 20.6432C4.26516 20.897 4.34748 21.0446 4.67302 20.943C4.95183 20.8562 5.25401 20.8393 5.5461 20.7913L5.54769 20.7918Z" fill="#98A2B3"/>
<path d="M2.64597 12.1324C2.48505 12.1902 2.32414 12.2484 2.16323 12.3061C1.9439 10.9372 1.72085 9.56828 1.50736 8.19835C1.46647 7.93479 1.36238 7.56753 1.75643 7.52309C2.12711 7.48121 2.06445 7.87758 2.09206 8.09262C2.22005 9.09529 2.3029 10.1031 2.42398 11.1068C2.4654 11.4526 2.57002 11.7912 2.64597 12.1329V12.1324Z" fill="#98A2B3"/>
<path d="M9.14346 6.33789C8.88058 6.54221 8.6177 6.74703 8.35482 6.95135C7.7048 6.94828 7.0553 6.94522 6.40527 6.94266C6.53538 6.7884 6.66603 6.63466 6.79614 6.4804C7.5784 6.4329 8.36066 6.38539 9.14346 6.33789Z" fill="#98A2B3"/>
<path d="M4.26049 6.74902C4.44795 6.83432 4.63595 6.91963 4.82342 7.00544C3.91636 7.0606 3.00876 7.11526 2.1017 7.17042C2.09692 7.13569 2.09267 7.10096 2.08789 7.06622C2.81227 6.96049 3.53611 6.85476 4.26049 6.74953V6.74902Z" fill="#98A2B3"/>
<path d="M5.13311 11.536C5.12461 11.607 5.11664 11.6785 5.10815 11.7495C5.07628 11.7664 5.04442 11.7827 5.01256 11.7996C4.89625 11.6382 4.73003 11.4916 4.67214 11.3128C4.33916 10.2835 4.70029 9.34013 5.1347 8.40283C5.13948 8.49069 5.14426 8.57803 5.14904 8.66589C5.07363 9.17463 4.94617 9.68235 4.93927 10.1916C4.93343 10.6391 5.06301 11.088 5.13258 11.536H5.13311Z" fill="#98A2B3"/>
<path d="M14.9805 13.7081C14.9922 13.6335 15.0044 13.559 15.0161 13.4839C15.0044 13.5585 14.9922 13.633 14.9805 13.7081Z" fill="#98A2B3"/>
<path d="M14.4482 17.693C14.4546 17.6184 14.461 17.5433 14.4674 17.4688C14.461 17.5433 14.4546 17.6184 14.4482 17.693Z" fill="#98A2B3"/>
<path d="M14.3701 18.4444C14.376 18.3699 14.3818 18.2948 14.3876 18.2202C14.3818 18.2948 14.376 18.3699 14.3701 18.4444Z" fill="#98A2B3"/>
<path d="M14.9033 14.2345C14.9139 14.1599 14.9251 14.0848 14.9357 14.0103C14.9251 14.0848 14.9139 14.1599 14.9033 14.2345Z" fill="#98A2B3"/>
<path d="M14.2178 19.8728L14.2288 19.7231C14.2252 19.7732 14.2215 19.8227 14.2178 19.8728Z" fill="#98A2B3"/>
<path d="M14.2979 19.1214C14.3015 19.0713 14.3052 19.0212 14.3084 18.9712C14.3047 19.0212 14.301 19.0713 14.2979 19.1214Z" fill="#98A2B3"/>
<path d="M14.5352 16.9406C14.5394 16.8916 14.5436 16.842 14.5478 16.793C14.5436 16.842 14.5394 16.8916 14.5352 16.9406Z" fill="#98A2B3"/>
<path d="M14.6855 15.8127L14.7003 15.6636L14.6855 15.8127Z" fill="#98A2B3"/>
<path d="M14.8428 14.6848C14.848 14.6352 14.8533 14.5857 14.8581 14.5361C14.8528 14.5857 14.8475 14.6352 14.8428 14.6848Z" fill="#98A2B3"/>
</g>
<defs>
<clipPath id="clip0_431_11389">
<rect width="15.8571" height="20.5714" fill="white" transform="translate(0.857422 0.714355)"/>
</clipPath>
</defs>
</svg>
