<svg width="28" height="28" viewBox="0 0 28 28" fill="none" xmlns="http://www.w3.org/2000/svg">
<g clip-path="url(#clip0_482_869)">
<path d="M18.2343 9.72488C19.5336 11.6751 19.9052 13.9376 20.3427 16.1631C20.8617 18.8058 21.2833 21.4679 21.7319 24.1235C21.9163 25.2128 21.6355 25.7736 20.5864 26.1152C19.5846 26.4411 18.5439 26.6695 17.505 26.8555C15.3178 27.2459 13.1854 26.9375 11.1132 26.1944C10.2421 25.8822 9.39501 25.5019 8.37373 25.0857C6.95488 25.2054 5.44984 24.7846 3.95685 24.2533C3.88271 24.036 3.82062 23.8546 3.75019 23.6474C2.86514 23.5415 1.98751 23.3399 1.09969 22.8205C0.772548 20.7672 0.935656 18.6972 1.34991 16.6226C1.7688 14.5269 2.58897 12.6098 3.80857 10.863C3.74185 10.7691 3.71404 10.6917 3.65844 10.6567C1.52229 9.28197 1.59735 6.06284 2.94299 4.36948C3.83638 3.24518 5.62222 2.71204 7.004 3.18533C7.32187 3.29398 7.61102 3.32529 7.9224 3.14942C8.22082 2.98091 8.55167 2.87134 8.85749 2.71572C9.78146 2.24519 10.7351 2.19086 11.7443 2.50025C11.9158 2.34464 12.0946 2.17705 12.279 2.01591C13.5348 0.918311 15.0185 0.564722 16.6273 0.841884C18.4679 1.15956 19.8598 2.86949 20.0637 4.88237C20.2481 6.70648 19.782 8.28382 18.3752 9.53059C18.3224 9.57755 18.2909 9.64661 18.2352 9.72488H18.2343ZM8.62951 24.8675C8.72775 24.0047 8.80652 23.2257 8.90754 22.4495C9.39501 18.6999 10.0428 14.9928 11.9445 11.537C11.0743 11.7902 10.2624 11.9965 9.49324 11.7101C8.25789 12.1282 7.80934 12.4781 7.10594 13.5425C6.02165 15.1834 5.40999 17.0195 4.94477 18.9016C4.64728 20.1042 4.45359 21.3325 4.24044 22.5544C4.16166 23.0047 4.16166 23.4688 4.12181 23.9771C5.56105 24.582 7.02717 24.8988 8.63044 24.8675H8.62951ZM12.5765 10.1181C12.3448 9.9072 12.1428 9.73316 11.9519 9.54716C10.6517 8.28106 9.94549 6.80777 10.4478 4.96985C10.6007 4.40908 10.8945 3.88698 11.1262 3.34739C11.1883 3.20375 11.2587 3.06378 11.3347 2.9008C11.2003 2.8787 11.129 2.86029 11.0557 2.8566C9.74717 2.79123 8.67863 3.34279 7.6657 4.09877C6.89928 4.67151 6.36732 5.36948 6.21441 6.31238C6.06984 7.20464 5.91322 8.10979 6.46 8.94035C7.34875 10.2893 8.57298 11.1457 10.2105 11.2516C11.153 11.3123 11.9955 10.9891 12.5756 10.1153L12.5765 10.1181ZM19.7699 23.2027C19.8209 23.1999 19.8728 23.1972 19.9238 23.1944C19.9238 23.4366 19.9052 23.6797 19.9293 23.9191C19.9544 24.1723 20.0202 24.4218 20.0674 24.6723C20.1193 24.6631 20.1712 24.6548 20.2231 24.6456C20.1582 23.3721 19.946 22.1152 19.7245 20.8905C19.6272 21.0204 19.5169 21.1668 19.39 21.3353C19.39 22.3399 19.3863 23.3675 19.3974 24.3942C19.3983 24.4789 19.5049 24.5627 19.5633 24.6474C19.6105 24.6401 19.6578 24.6327 19.706 24.6253C19.7273 24.1511 19.7496 23.6769 19.7709 23.2036L19.7699 23.2027ZM20.5938 23.9522C20.6967 22.8261 20.4808 21.7331 20.1425 20.6576C20.1128 21.7754 20.2352 22.873 20.5938 23.9522ZM6.21163 4.70558C5.19962 5.93669 4.93179 7.52784 5.5073 8.40813C5.4344 7.62483 5.66917 6.39065 6.21163 4.70558V4.70558ZM8.70273 11.5029C8.29959 11.2921 8.00396 11.1383 7.70833 10.9836C7.67218 11.0214 7.63604 11.0582 7.5999 11.096C7.74076 11.3271 7.8807 11.5573 8.03361 11.8077C8.26901 11.7009 8.43397 11.6254 8.70365 11.5039L8.70273 11.5029Z" fill="#1D4648"/>
<path d="M22.1971 9.81415C21.6336 9.21286 21.5752 8.89426 21.9052 8.37125C22.3463 8.44031 22.0896 8.95227 22.4649 9.13275C22.5604 9.08211 22.7198 8.99831 22.8755 8.91636C22.8986 8.5904 22.919 8.30034 22.945 7.94215C23.1229 7.89335 23.3027 7.80035 23.4825 7.80035C24.4018 7.80035 25.2211 7.53332 25.9551 6.98175C26.1691 6.82153 26.4175 6.70183 26.6612 6.58489C26.8642 6.48728 27.0449 6.5278 27.1876 6.8335C26.7113 7.36573 25.9541 7.54805 25.3573 8.07291V10.1862C24.6687 10.6852 23.9385 10.4403 23.1767 10.5066C23.0543 10.2175 22.9357 9.93753 22.8115 9.64196C22.6336 9.69168 22.4297 9.74877 22.198 9.81323L22.1971 9.81415ZM24.7892 8.38137C24.2396 8.72944 23.7716 9.02594 23.2944 9.32888C23.3101 9.5508 23.324 9.73219 23.3407 9.95963C23.8467 9.93661 24.3017 9.91543 24.7892 9.89333V8.3823V8.38137ZM23.2323 8.68432C23.5325 8.48543 23.6994 8.37585 23.9283 8.22392C23.5674 8.20857 23.3355 8.36204 23.2323 8.68432Z" fill="#1D4648"/>
<path d="M25.6334 16.5452C26.4366 16.1578 26.9583 15.9946 27.1987 16.0553C27.182 16.5259 26.7409 16.5756 26.4628 16.768C26.183 16.9623 25.8744 17.117 25.5064 17.3316V18.8868H23.387C23.1849 18.6391 22.9829 18.3896 22.78 18.141C22.5687 17.7459 22.2508 17.327 22.6808 16.7496C22.8541 17.0765 22.9885 17.3297 23.1479 17.6308V16.5922C24.0246 16.3408 24.8392 16.2321 25.6334 16.5452V16.5452ZM25.0959 18.4126V17.5857C23.9375 17.9614 23.7586 18.0728 23.6372 18.5572C24.1126 18.5102 24.5593 18.466 25.0959 18.4126V18.4126ZM23.6066 16.9817C23.6214 17.2054 23.6316 17.3666 23.6455 17.5922C24.1478 17.3527 24.5973 17.1382 25.0468 16.9237C25.0366 16.8905 25.0264 16.8574 25.0171 16.8242C24.5741 16.8739 24.1321 16.9236 23.6066 16.9817V16.9817Z" fill="#1D4648"/>
<path d="M22.729 12.0738C23.754 11.8325 24.6603 11.9347 25.6205 11.885V14.5636C24.703 14.6732 23.8457 14.9117 22.9477 14.6014C22.8736 13.7432 22.805 12.9513 22.729 12.0738ZM23.3712 14.3353C24.0404 14.2644 24.6177 14.2027 25.2006 14.141V12.2377C24.8096 12.0646 24.5436 12.3049 24.2424 12.3776C23.9208 12.455 23.5807 12.4541 23.2535 12.4872C23.2934 13.1115 23.3286 13.6686 23.3712 14.3362V14.3353Z" fill="#1D4648"/>
</g>
<defs>
<clipPath id="clip0_482_869">
<rect width="26.2733" height="26.2733" fill="white" transform="translate(0.925293 0.751587)"/>
</clipPath>
</defs>
</svg>
