<svg width="19" height="17" viewBox="0 0 19 17" fill="none" xmlns="http://www.w3.org/2000/svg">
<path d="M7.99829 16.1427C7.8821 16.1427 7.67297 16.0918 7.60467 15.9552C7.09558 14.9331 6.59141 13.8873 6.10344 12.8763L5.95064 12.5598C5.93092 12.5194 5.93304 12.4817 5.94078 12.4476L5.91473 12.4713L5.68236 12.214L5.56547 12.4636C5.43943 12.4176 5.31973 12.3757 5.20495 12.336C4.96766 12.2537 4.74304 12.1763 4.52898 12.078C3.45938 11.5872 2.37712 11.0776 1.33076 10.5846L0.973056 10.4159C0.860393 10.3629 0.723085 10.2981 0.64563 10.1823C0.568878 10.0659 0.547754 9.88325 0.59634 9.75566C0.642813 9.63504 0.831523 9.54789 0.935736 9.54789C0.970239 9.54789 1.00122 9.55556 1.02868 9.5702C1.05544 9.58484 1.07797 9.59251 1.09558 9.59251C1.12515 9.59251 1.15965 9.56462 1.21317 9.51791C1.24697 9.48863 1.2857 9.45516 1.33076 9.42727C1.62228 9.25019 1.91731 9.06612 2.20249 8.88834C2.90874 8.44771 3.63894 7.99243 4.38674 7.59294C7.29555 6.03748 10.2607 4.47227 13.1294 2.95795C14.3968 2.28863 15.6643 1.61932 16.9317 0.94931C17.1345 0.841941 17.3373 0.726205 17.5345 0.614653C17.6662 0.539355 17.7985 0.464755 17.9316 0.390851C18.0619 0.31904 18.171 0.28418 18.2647 0.28418C18.3788 0.28418 18.4485 0.335773 18.4865 0.378999C18.5632 0.465452 18.5879 0.598617 18.5625 0.786164C18.4618 1.53217 18.3344 2.25377 18.183 2.93076C17.2627 7.04633 16.3466 11.0769 15.6516 14.1285C15.5833 14.4276 15.4925 14.7155 15.4122 14.97C15.3833 15.0607 15.3566 15.1464 15.3326 15.2259L15.4798 15.9761L15.3186 15.9851C15.2601 15.9886 15.1974 15.9984 15.1305 16.0089C15.0425 16.0228 14.9517 16.0374 14.8623 16.0374C14.7778 16.0374 14.706 16.0242 14.6419 15.9977C13.304 15.4399 11.9887 14.8606 10.7663 14.3174C10.6621 14.2707 10.5818 14.2491 10.5149 14.2491C10.4536 14.2491 10.3656 14.2645 10.2304 14.3837C9.95862 14.6235 9.66429 14.8438 9.37982 15.0565C9.18688 15.2008 8.98761 15.35 8.79819 15.5034C8.73271 15.5564 8.67708 15.6324 8.61793 15.7125C8.56512 15.7844 8.5109 15.859 8.44331 15.9252C8.38627 15.9817 8.23347 16.1148 8.05039 16.1392C8.0342 16.1413 8.0166 16.1427 7.99829 16.1427ZM7.99125 15.4413L8.86298 13.6014L9.20026 13.7311L8.79186 14.9373L9.89806 13.957L9.07774 13.561L9.20096 13.2228L14.487 14.9714L17.562 2.0732C16.7761 3.15874 15.9945 4.27566 15.2348 5.3612C13.4413 7.92411 11.5866 10.5749 9.52769 13.0388L9.45586 13.1252L9.12773 12.9593L9.1911 12.8352C9.22561 12.7676 9.25659 12.6992 9.28969 12.626C9.36221 12.4671 9.43685 12.3018 9.54459 12.1561C10.6142 10.7122 11.7042 9.2467 12.7583 7.82929C13.8356 6.3812 14.9496 4.88362 16.0417 3.40834C16.2952 3.06601 16.5226 2.72299 16.729 2.36951C16.3924 2.63933 16.0473 2.91821 15.7326 3.21521C13.6913 5.13949 11.6218 7.10211 9.62063 9.00059C8.68271 9.89022 7.74409 10.7805 6.80547 11.6702C6.63014 11.8361 6.44706 11.9986 6.27032 12.1554C6.21751 12.2028 6.164 12.2495 6.11119 12.297L6.24427 12.2816L7.99265 15.4413H7.99125ZM5.67673 12.2077L5.60561 12.1289L5.69292 12.0355C8.14686 9.40845 10.8564 6.95779 13.4758 4.588C14.5813 3.58822 15.7185 2.55984 16.8325 1.52171C16.4811 1.68277 16.1248 1.85079 15.7924 2.04392C14.8193 2.60935 13.8349 3.19569 12.8836 3.76182C11.6542 4.49388 10.3825 5.25104 9.11787 5.97334C7.40399 6.95291 5.71194 7.88576 3.9206 8.8737C3.21998 9.25995 2.51513 9.64899 1.80535 10.0422L5.67673 12.2063V12.2077Z" fill="#1E1E1E"/>
</svg>
