<svg width="34" height="32" viewBox="0 0 34 32" fill="none" xmlns="http://www.w3.org/2000/svg">
<g clip-path="url(#clip0_431_11422)">
<path d="M20.0076 27.5266C19.4018 29.0463 18.7583 30.5509 18.1568 32C17.6726 31.4138 17.1795 30.7256 16.5902 30.1297C15.9832 29.5142 15.2535 29.017 14.6299 28.4156C13.8969 27.709 13.155 26.9936 12.5337 26.1947C11.5032 24.8682 11.1085 22.3172 12.778 20.5836C13.4635 19.8726 14.2883 19.2897 14.9937 18.6948C15.0147 18.7057 15.0368 18.7165 15.0578 18.7274C15.0589 18.799 15.3176 18.8956 15.7245 19.0454C16.1734 19.2474 16.6233 19.4265 17.0766 19.5828C17.0777 19.5849 17.0789 19.5849 17.08 19.5849C18.4056 20.1863 19.9933 21.185 20.5439 22.9034C21.0303 24.422 20.6013 26.0373 20.0076 27.5266Z" fill="#FCFCFD"/>
<path d="M33.8286 16.3588C33.666 16.4662 33.5975 16.527 33.5168 16.5639C32.137 17.1859 30.7605 17.8134 29.374 18.4202C26.5249 19.6696 23.5751 19.9659 20.5291 19.2734C19.5064 19.0411 18.4771 18.8316 17.4621 18.57C16.3941 18.2932 15.3283 17.9881 14.509 17.1414C14.111 17.5908 13.7705 18.025 13.378 18.4093C12.3663 19.4026 11.1026 20.0094 9.77255 20.4338C8.76202 20.7562 7.7349 20.474 6.86146 19.941C6.11185 19.484 5.4131 18.9086 4.79064 18.2888C3.29916 16.806 2.15595 14.966 0 14.0119C0.687694 13.6819 1.23497 13.4105 1.78999 13.1543C3.69276 12.2761 5.58558 11.3795 7.70947 11.1016C9.84994 10.8215 11.8401 11.2579 13.7351 12.2208C13.8313 12.2696 13.9474 12.2816 14.1928 12.3478C14.0933 12.0851 14.0635 11.906 13.9684 11.7703C12.4592 9.61769 12.3685 7.24258 13.043 4.84901C13.5129 3.18708 14.2713 1.60223 14.8949 0C18.1509 1.60223 20.8442 3.48777 21.376 7.26755C21.6082 8.91645 20.8486 10.18 20.0504 11.4663C19.8503 11.7876 19.5517 12.0482 19.3273 12.3575C19.2466 12.4683 19.2521 12.6398 19.2189 12.7831C19.3516 12.7548 19.5075 12.7624 19.6136 12.6941C20.5976 12.0525 21.543 11.3491 22.5568 10.7597C24.5967 9.5721 26.6752 9.81743 28.3878 11.4131C28.965 11.9505 29.489 12.5453 30.012 13.1359C31.1099 14.3723 32.1768 15.638 33.8286 16.3588Z" fill="#FCFCFD"/>
</g>
<defs>
<clipPath id="clip0_431_11422">
<rect width="33.8286" height="32" fill="white"/>
</clipPath>
</defs>
</svg>
