<svg width="71" height="18" viewBox="0 0 71 18" fill="none" xmlns="http://www.w3.org/2000/svg">
<path d="M15.998 12.254C16.022 12.542 16.136 12.812 16.34 13.064C16.544 13.316 16.646 13.508 16.646 13.64V13.712C16.646 13.916 16.514 14.018 16.25 14.018H13.136C12.86 14.018 12.722 13.916 12.722 13.712V13.64C12.722 13.52 12.83 13.334 13.046 13.082C13.274 12.83 13.376 12.56 13.352 12.272L13.172 8.978C13.124 7.982 12.974 7.274 12.722 6.854C12.47 6.422 12.098 6.206 11.606 6.206C11.186 6.206 10.844 6.38 10.58 6.728C10.316 7.076 10.172 7.526 10.148 8.078C10.196 8.318 10.22 8.606 10.22 8.942V12.272C10.22 12.56 10.322 12.83 10.526 13.082C10.742 13.334 10.85 13.52 10.85 13.64V13.712C10.85 13.916 10.718 14.018 10.454 14.018H7.34C7.064 14.018 6.926 13.916 6.926 13.712V13.64C6.926 13.52 7.034 13.334 7.25 13.082C7.466 12.83 7.574 12.56 7.574 12.272V8.762C7.574 7.946 7.43 7.316 7.142 6.872C6.854 6.428 6.476 6.206 6.008 6.206C5.528 6.206 5.15 6.392 4.874 6.764C4.598 7.136 4.46 7.616 4.46 8.204V12.272C4.46 12.56 4.586 12.83 4.838 13.082C5.102 13.334 5.234 13.52 5.234 13.64V13.712C5.234 13.916 5.096 14.018 4.82 14.018H1.472C1.196 14.018 1.058 13.916 1.058 13.712V13.64C1.058 13.52 1.184 13.334 1.436 13.082C1.7 12.83 1.832 12.56 1.832 12.272V8.078C1.832 7.85 1.76 7.658 1.616 7.502C1.472 7.346 1.322 7.214 1.166 7.106C1.022 6.986 0.95 6.866 0.95 6.746V6.674C0.95 6.542 1.076 6.416 1.328 6.296L3.596 5.252C3.8 5.156 3.956 5.15 4.064 5.234C4.172 5.306 4.226 5.438 4.226 5.63V6.476C4.79 5.612 5.618 5.18 6.71 5.18C8.078 5.18 9.074 5.72 9.698 6.8C9.938 6.296 10.298 5.9 10.778 5.612C11.27 5.324 11.822 5.18 12.434 5.18C13.346 5.18 14.108 5.486 14.72 6.098C15.332 6.698 15.686 7.682 15.782 9.05L15.998 12.254ZM25.6295 12.2C25.6655 12.476 25.7315 12.698 25.8275 12.866C25.9355 13.034 26.0435 13.142 26.1515 13.19C26.2595 13.226 26.3555 13.274 26.4395 13.334C26.5235 13.394 26.5655 13.478 26.5655 13.586C26.5655 13.934 25.9895 14.108 24.8375 14.108C24.3095 14.108 23.9195 14.042 23.6675 13.91C23.4275 13.766 23.2835 13.508 23.2355 13.136C22.7675 13.832 21.9695 14.18 20.8415 14.18C19.8335 14.18 19.0175 13.946 18.3935 13.478C17.7695 13.01 17.4575 12.338 17.4575 11.462C17.4455 10.598 17.7515 9.926 18.3755 9.446C18.9995 8.966 19.7795 8.726 20.7155 8.726C21.5075 8.726 22.1615 8.906 22.6775 9.266L22.6595 9.05C22.5395 7.91 22.3715 7.106 22.1555 6.638C21.9395 6.17 21.5735 5.936 21.0575 5.936C20.7335 5.936 20.4695 6.056 20.2655 6.296C20.0615 6.536 19.9175 6.8 19.8335 7.088C19.7495 7.376 19.6115 7.64 19.4195 7.88C19.2275 8.12 18.9815 8.24 18.6815 8.24C18.3575 8.24 18.0935 8.15 17.8895 7.97C17.6975 7.778 17.6015 7.532 17.6015 7.232C17.6015 6.608 17.9315 6.11 18.5915 5.738C19.2635 5.366 20.0855 5.18 21.0575 5.18C22.2215 5.18 23.1755 5.51 23.9195 6.17C24.6635 6.83 25.1015 7.73 25.2335 8.87L25.6295 12.2ZM21.6335 13.388C22.0295 13.388 22.3475 13.226 22.5875 12.902C22.8275 12.566 22.9355 12.188 22.9115 11.768L22.8575 11.138C22.8095 10.622 22.6535 10.226 22.3895 9.95C22.1375 9.674 21.8195 9.536 21.4355 9.536C21.0515 9.536 20.7335 9.674 20.4815 9.95C20.2415 10.226 20.1215 10.592 20.1215 11.048C20.1215 11.696 20.2595 12.248 20.5355 12.704C20.8235 13.16 21.1895 13.388 21.6335 13.388ZM30.3659 3.65C30.0419 3.938 29.6159 4.082 29.0879 4.082C28.5599 4.082 28.1339 3.938 27.8099 3.65C27.4859 3.35 27.3239 2.966 27.3239 2.498C27.3239 2.042 27.4859 1.67 27.8099 1.382C28.1339 1.082 28.5599 0.932 29.0879 0.932C29.6159 0.932 30.0419 1.082 30.3659 1.382C30.6899 1.67 30.8519 2.042 30.8519 2.498C30.8519 2.966 30.6899 3.35 30.3659 3.65ZM27.6479 17.492C26.8679 17.492 26.2439 17.336 25.7759 17.024C25.2959 16.724 25.0559 16.292 25.0559 15.728C25.0559 15.404 25.1639 15.14 25.3799 14.936C25.5959 14.732 25.8659 14.63 26.1899 14.63C26.5499 14.63 26.8259 14.732 27.0179 14.936C27.2099 15.14 27.3239 15.368 27.3599 15.62C27.4079 15.872 27.4919 16.1 27.6119 16.304C27.7439 16.508 27.9299 16.61 28.1699 16.61C28.3859 16.61 28.5599 16.532 28.6919 16.376C28.8239 16.22 28.8899 16.022 28.8899 15.782C28.8899 15.362 28.7279 14.912 28.4039 14.432C28.0799 13.964 27.9179 13.568 27.9179 13.244V8.186C27.9179 7.886 27.8039 7.61 27.5759 7.358C27.3479 7.094 27.2339 6.908 27.2339 6.8V6.746C27.2339 6.626 27.3539 6.5 27.5939 6.368L29.8979 5.252C30.1259 5.156 30.2999 5.15 30.4199 5.234C30.5519 5.306 30.6179 5.432 30.6179 5.612V14.072C30.6179 14.936 30.4319 15.668 30.0599 16.268C29.4959 17.084 28.6919 17.492 27.6479 17.492ZM32.4425 14C32.1665 14 32.0285 13.898 32.0285 13.694V13.622C32.0285 13.502 32.1425 13.316 32.3705 13.064C32.6105 12.812 32.7305 12.548 32.7305 12.272V3.416C32.7305 3.104 32.6105 2.822 32.3705 2.57C32.1425 2.318 32.0285 2.144 32.0285 2.048V1.976C32.0285 1.832 32.1485 1.712 32.3885 1.616L34.6565 0.499999C34.8965 0.403999 35.0765 0.392 35.1965 0.463999C35.3285 0.535999 35.3945 0.655999 35.3945 0.823999V12.272C35.3945 12.548 35.5205 12.812 35.7725 13.064C36.0365 13.316 36.1685 13.502 36.1685 13.622V13.694C36.1685 13.898 36.0305 14 35.7545 14H32.4425ZM40.4935 3.65C40.1815 3.938 39.7615 4.082 39.2335 4.082C38.7055 4.082 38.2735 3.938 37.9375 3.65C37.6135 3.35 37.4515 2.966 37.4515 2.498C37.4515 2.042 37.6135 1.67 37.9375 1.382C38.2735 1.082 38.7055 0.932 39.2335 0.932C39.7615 0.932 40.1815 1.082 40.4935 1.382C40.8175 1.67 40.9795 2.042 40.9795 2.498C40.9795 2.966 40.8175 3.35 40.4935 3.65ZM37.5955 14C37.3315 14 37.1995 13.898 37.1995 13.694V13.622C37.1995 13.502 37.3135 13.316 37.5415 13.064C37.7695 12.812 37.8835 12.542 37.8835 12.254V8.186C37.8835 7.886 37.7695 7.604 37.5415 7.34C37.3135 7.076 37.1995 6.896 37.1995 6.8V6.746C37.1995 6.626 37.3255 6.5 37.5775 6.368L39.8275 5.252C40.0555 5.156 40.2355 5.15 40.3675 5.234C40.4995 5.306 40.5655 5.432 40.5655 5.612V12.254C40.5655 12.542 40.6915 12.812 40.9435 13.064C41.1955 13.316 41.3215 13.502 41.3215 13.622V13.694C41.3215 13.898 41.1835 14 40.9075 14H37.5955ZM46.111 14.162C44.983 14.162 44.059 13.958 43.339 13.55C42.619 13.142 42.259 12.65 42.259 12.074C42.259 11.75 42.355 11.504 42.547 11.336C42.751 11.168 43.015 11.084 43.339 11.084C43.687 11.084 43.969 11.21 44.185 11.462C44.401 11.702 44.551 11.972 44.635 12.272C44.731 12.572 44.899 12.848 45.139 13.1C45.391 13.34 45.715 13.46 46.111 13.46C46.495 13.46 46.807 13.358 47.047 13.154C47.299 12.95 47.425 12.656 47.425 12.272C47.425 11.84 47.251 11.498 46.903 11.246C46.567 10.994 46.153 10.808 45.661 10.688C45.169 10.556 44.677 10.412 44.185 10.256C43.693 10.088 43.273 9.806 42.925 9.41C42.589 9.002 42.421 8.474 42.421 7.826C42.421 7.058 42.757 6.428 43.429 5.936C44.113 5.432 44.995 5.18 46.075 5.18C47.167 5.18 48.055 5.396 48.739 5.828C49.435 6.248 49.783 6.752 49.783 7.34C49.783 7.604 49.681 7.826 49.477 8.006C49.285 8.186 49.045 8.276 48.757 8.276C48.421 8.276 48.151 8.156 47.947 7.916C47.743 7.664 47.599 7.394 47.515 7.106C47.431 6.806 47.281 6.536 47.065 6.296C46.849 6.044 46.567 5.918 46.219 5.918C45.871 5.918 45.589 6.038 45.373 6.278C45.157 6.506 45.049 6.788 45.049 7.124C45.049 7.46 45.139 7.742 45.319 7.97C45.499 8.198 45.733 8.372 46.021 8.492C46.309 8.612 46.627 8.726 46.975 8.834C47.323 8.93 47.671 9.044 48.019 9.176C48.379 9.296 48.703 9.446 48.991 9.626C49.279 9.806 49.513 10.064 49.693 10.4C49.873 10.724 49.963 11.12 49.963 11.588C49.963 12.332 49.615 12.95 48.919 13.442C48.223 13.922 47.287 14.162 46.111 14.162ZM59.9623 12.65C60.0343 12.746 60.2143 12.896 60.5023 13.1C60.7903 13.292 60.9343 13.472 60.9343 13.64V13.694C60.9343 13.898 60.8143 14 60.5743 14H57.2263C56.9863 14 56.8663 13.892 56.8663 13.676V13.64C56.8663 13.52 56.9503 13.364 57.1183 13.172C57.2983 12.98 57.3343 12.806 57.2263 12.65L55.2823 9.914L54.2203 10.904V12.272C54.2203 12.548 54.3463 12.812 54.5983 13.064C54.8623 13.316 54.9943 13.502 54.9943 13.622V13.694C54.9943 13.898 54.8563 14 54.5803 14H51.2683C51.0043 14 50.8723 13.898 50.8723 13.694V13.622C50.8723 13.502 50.9863 13.316 51.2143 13.064C51.4423 12.812 51.5563 12.548 51.5563 12.272V3.416C51.5563 3.104 51.4183 2.822 51.1423 2.57C50.8783 2.318 50.7463 2.144 50.7463 2.048V1.976C50.7463 1.832 50.8663 1.712 51.1063 1.616L53.5003 0.499999C53.7163 0.403999 53.8903 0.392 54.0223 0.463999C54.1543 0.535999 54.2203 0.655999 54.2203 0.823999V9.536L57.0643 7.07C57.1963 6.974 57.2443 6.86 57.2083 6.728C57.1843 6.596 57.1303 6.488 57.0463 6.404C56.9623 6.308 56.8723 6.2 56.7763 6.08C56.6803 5.948 56.6323 5.834 56.6323 5.738V5.666C56.6323 5.462 56.7523 5.36 56.9923 5.36H59.5663C59.8063 5.36 59.9263 5.456 59.9263 5.648V5.72C59.9263 5.852 59.8483 5.984 59.6923 6.116C59.5483 6.236 59.3323 6.386 59.0443 6.566C58.7683 6.746 58.5463 6.908 58.3783 7.052L56.9203 8.402L59.9623 12.65ZM69.9943 12.164C69.9943 12.488 70.0363 12.734 70.1203 12.902C70.2163 13.058 70.3183 13.148 70.4263 13.172C70.5343 13.184 70.6303 13.22 70.7143 13.28C70.8103 13.34 70.8583 13.442 70.8583 13.586C70.8583 13.934 70.3243 14.108 69.2563 14.108C68.7283 14.108 68.3323 14.024 68.0683 13.856C67.8163 13.676 67.6783 13.37 67.6543 12.938C67.1503 13.766 66.2803 14.18 65.0443 14.18C64.0723 14.18 63.2683 13.856 62.6323 13.208C62.0083 12.548 61.6963 11.624 61.6963 10.436V7.394C61.6963 7.094 61.5763 6.818 61.3363 6.566C61.1083 6.302 60.9943 6.122 60.9943 6.026V5.972C60.9943 5.756 61.1203 5.63 61.3723 5.594L63.6403 5.252C64.1323 5.192 64.3783 5.3 64.3783 5.576L64.3243 10.706C64.3243 12.338 64.8223 13.154 65.8183 13.154C66.2623 13.154 66.6283 12.962 66.9163 12.578C67.2163 12.182 67.3663 11.672 67.3663 11.048V7.394C67.3663 7.094 67.2463 6.818 67.0063 6.566C66.7663 6.302 66.6463 6.122 66.6463 6.026V5.972C66.6463 5.756 66.7663 5.63 67.0063 5.594L69.3103 5.252C69.7663 5.204 69.9943 5.312 69.9943 5.576V12.164Z" fill="#1E1E1E"/>
</svg>
