<svg width="33" height="32" viewBox="0 0 33 32" fill="none" xmlns="http://www.w3.org/2000/svg">
<path d="M32.1914 15.7933C30.9755 15.2969 30.174 14.4358 29.3264 13.5231L29.1368 13.3197C28.4923 12.6295 27.9507 12.0762 27.4322 11.5785C25.6801 9.89828 23.8143 9.36126 21.7265 9.93896C21.4096 10.0271 21.1064 10.1315 20.7841 10.2441C20.7489 10.2563 20.7151 10.2685 20.6799 10.2807C21.2309 7.50476 20.7096 4.02092 17.6375 2.17798C16.9632 1.77386 16.3106 1.30193 15.6782 0.844925C15.3425 0.602183 14.9958 0.351303 14.6479 0.112629C14.5558 0.0502481 14.2525 -0.0785819 14.0846 0.0692336C13.9519 0.185859 13.9018 0.367577 13.8653 0.528953C13.8301 0.683549 13.8043 0.840857 13.7786 0.994097C13.7312 1.27752 13.6852 1.54468 13.5931 1.79149C13.4631 2.13594 13.2858 2.47496 13.1138 2.80314C13.0285 2.96723 12.9418 3.12996 12.862 3.29541C11.7233 5.62248 11.4132 7.77326 11.9128 9.87251C11.9886 10.1898 12.0726 10.499 12.162 10.8259C12.1728 10.8652 12.1836 10.9045 12.1944 10.9438C7.69517 9.80742 4.02046 11.5907 0.715394 13.7022L0.501465 13.8378L0.68019 14.0168C0.938801 14.2758 1.19335 14.5294 1.44654 14.7816C2.03417 15.3661 2.58795 15.918 3.14308 16.4889C3.4193 16.7737 3.69415 17.0721 3.95953 17.3609C4.38198 17.822 4.81931 18.298 5.28373 18.7347C7.13462 20.4718 9.42014 20.8976 11.4389 19.8928C10.5399 22.0178 10.7552 23.6587 12.1403 25.465C12.7415 26.2488 13.4604 26.9527 14.155 27.6348C14.4096 27.8843 14.6722 28.1406 14.9241 28.3983C15.7148 29.2024 16.2334 30.0432 16.5082 30.9654C16.5502 31.1037 16.622 31.219 16.7073 31.3532C16.7465 31.4142 16.7885 31.4807 16.8305 31.5566L17.0823 32.0014L17.2042 31.5051C17.2516 31.3112 17.2881 31.1335 17.3247 30.9613C17.3937 30.625 17.4533 30.3348 17.5657 30.0758C18.026 29.0139 18.5243 27.8857 19.1038 26.7967C20.1789 24.7775 20.4375 22.9074 19.8932 21.0807C19.8485 20.9302 19.7835 20.7905 19.7212 20.6563C19.6942 20.5979 19.6671 20.5396 19.6413 20.48L19.5777 20.3308L19.0591 20.4271L19.0618 20.5993C19.0632 20.682 19.0618 20.7661 19.0618 20.8502C19.0618 21.036 19.0591 21.2285 19.0808 21.4225C19.246 22.9413 19.0957 24.2716 18.6204 25.4894C18.2481 26.4441 17.8554 27.3975 17.4763 28.321C17.3558 28.6139 17.2367 28.9041 17.1189 29.1929C17.062 29.1211 17.0065 29.0478 16.9483 28.9732C16.6355 28.5678 16.3106 28.1487 15.9382 27.765C15.6457 27.4625 15.3194 27.1886 15.004 26.9255C14.7345 26.6991 14.4556 26.4658 14.1983 26.2136C13.5647 25.5911 12.9107 24.9456 12.3718 24.2404C11.5933 23.2193 11.1194 20.9899 12.5736 19.4507C12.9838 19.0167 13.455 18.6329 13.9127 18.2614C14.0846 18.1217 14.2498 17.9874 14.4109 17.8518C16.997 19.1686 19.8241 19.6921 23.5557 19.5483C26.8784 19.4208 29.7217 18.3048 32.2469 16.1377L32.5001 15.9207L32.1914 15.7946V15.7933ZM16.7696 17.9115C15.7879 17.6525 14.9214 17.3813 14.2579 16.6815L14.1036 16.5188L13.9573 16.6883C13.845 16.8185 13.738 16.946 13.6324 17.0721C13.409 17.3379 13.1991 17.5901 12.9689 17.8206C12.1985 18.5923 11.2128 19.1564 9.86695 19.5931C8.93271 19.8968 8.0472 19.5307 7.4677 19.17C6.85976 18.7916 6.25724 18.3021 5.67638 17.7122C5.3257 17.3569 4.98856 16.9677 4.66225 16.592C3.83632 15.64 2.98467 14.6596 1.76202 14.0032C1.82837 13.9707 1.892 13.9395 1.95564 13.9069C2.32392 13.7252 2.64211 13.5679 2.96842 13.4147L3.11465 13.3455C4.70287 12.5969 6.34525 11.8226 8.13386 11.5826C9.89674 11.348 11.5973 11.6707 13.3331 12.5698C13.409 12.6091 13.4821 12.6268 13.5836 12.6512C13.6351 12.6634 13.6974 12.6783 13.7759 12.7L14.1577 12.8058L14.0196 12.4328C13.9898 12.3542 13.9682 12.2837 13.9479 12.2199C13.9059 12.087 13.8707 11.9731 13.7989 11.8687C12.6169 10.1478 12.3583 8.16382 13.0109 5.80556C13.2939 4.7817 13.7068 3.77004 14.1063 2.79365C14.2566 2.42479 14.4123 2.04508 14.5585 1.66808C17.5021 3.172 19.5398 4.84137 19.9704 7.95769C20.1694 9.39923 19.487 10.5207 18.8276 11.6056C18.7369 11.7548 18.6177 11.8904 18.4932 12.0341C18.393 12.1481 18.2901 12.2674 18.198 12.3962C18.1208 12.5061 18.1032 12.6322 18.0883 12.7434C18.0829 12.78 18.0789 12.8166 18.0707 12.8519L17.999 13.1624L18.3104 13.096C18.3415 13.0892 18.3754 13.0851 18.4079 13.0811C18.5094 13.0689 18.6245 13.0553 18.7288 12.9861C19.0415 12.7786 19.353 12.5617 19.6549 12.3501C20.1924 11.9745 20.7489 11.5866 21.3189 11.249C23.0317 10.2319 24.7729 10.4312 26.2244 11.8104C26.7078 12.2701 27.1587 12.7881 27.5933 13.2885L27.791 13.515C28.6358 14.4887 29.5065 15.4936 30.7521 16.1418L29.9303 16.5201C29.0217 16.9392 28.0821 17.3718 27.1532 17.7867C24.6741 18.8947 22.0893 19.1496 19.4735 18.5421C19.1945 18.477 18.9156 18.4146 18.6367 18.3522C18.0233 18.2153 17.3883 18.0729 16.7723 17.9101L16.7696 17.9115Z" fill="#231F20"/>
</svg>
