<svg width="19" height="17" viewBox="0 0 19 17" fill="none" xmlns="http://www.w3.org/2000/svg">
<g clip-path="url(#clip0_441_2545)">
<path d="M3.01552 2.85178C2.8655 2.81504 2.7385 2.78407 2.5487 2.73797C3.9352 2.00689 5.25261 1.28734 6.59375 0.618917C6.99358 0.42012 7.4604 0.364659 7.89651 0.243652C7.92721 0.317121 7.95861 0.390589 7.98932 0.464057C7.3962 0.732721 6.80309 1.00138 6.21067 1.26933C6.23718 1.34856 6.263 1.42707 6.28952 1.5063C7.21687 1.35792 8.14213 1.19226 9.07227 1.06333C11.0002 0.796106 12.878 1.01291 14.6566 1.84123C17.9006 3.35165 19.2159 6.35233 18.1225 9.84928C16.8651 13.8692 14.0377 16.0242 10.1196 16.8072C7.8379 17.2631 5.67966 16.9253 3.73982 15.5668C0.401628 13.2303 -0.483161 8.58807 1.67787 4.8239C2.06654 4.14684 2.55219 3.52956 3.01552 2.85178ZM5.83945 1.44436C5.77665 1.52215 5.71385 1.59994 5.65174 1.67773C5.73059 1.68421 5.81014 1.69069 5.88899 1.69717C5.99087 1.62587 6.09274 1.55384 6.19462 1.48253C6.18345 1.45372 6.17229 1.42563 6.16043 1.39682C6.05367 1.41266 5.94621 1.42851 5.83945 1.44436ZM5.44101 2.37279C5.01258 2.08684 4.66927 2.19272 4.39294 2.61337C4.21501 2.7459 4.01475 2.85538 3.86333 3.01528C2.25564 4.70649 1.36806 6.6995 1.41481 9.11171C1.46993 11.9395 3.20113 14.4799 5.77734 15.4365C10.4204 17.1601 16.0313 14.037 17.2217 9.08362C17.7164 7.02435 17.3703 5.20637 15.7661 3.80615C13.9575 2.22802 11.7908 1.69861 9.4742 1.8578C8.12469 1.94999 6.78564 2.19633 5.44171 2.37351L5.44101 2.37279Z" fill="#1E1E1E"/>
<path d="M8.1709 0.231929C8.70819 0.15486 9.24618 0.0770697 9.78347 0C9.79464 0.0684264 9.8058 0.136853 9.81697 0.205999C9.34876 0.296034 8.87985 0.385349 8.41163 0.475383C8.33139 0.394712 8.25114 0.313321 8.1709 0.23265V0.231929Z" fill="#1E1E1E"/>
<path d="M5.44065 2.37241C5.09106 2.45236 4.74217 2.53303 4.39258 2.61298C4.6682 2.19162 5.01221 2.08574 5.44065 2.37241Z" fill="#1E1E1E"/>
<path d="M5.88861 1.69715C5.80976 1.69067 5.73022 1.68419 5.65137 1.67771L5.83907 1.44434C5.85582 1.52861 5.87187 1.61288 5.88861 1.69787V1.69715Z" fill="#1E1E1E"/>
<path d="M9.28882 10.7653C9.3914 9.50269 9.81495 8.38626 10.2469 7.27127C10.4206 6.82254 10.6328 6.38317 10.7479 5.91931C10.8435 5.53324 10.8944 5.10467 10.8372 4.715C10.7095 3.83914 9.89589 3.40842 9.11298 3.76207C8.45986 4.05739 7.9428 4.51837 7.66089 5.21127C7.58972 5.38558 7.49412 5.64056 7.5639 5.76805C7.81999 6.23695 7.67345 6.60501 7.37131 6.94354C7.24292 7.0876 7.05103 7.17115 6.88775 7.28135C6.79425 7.11569 6.62608 6.95219 6.6219 6.78364C6.61213 6.381 6.64213 5.96757 6.72307 5.57357C6.93311 4.54862 7.5339 3.77216 8.34193 3.18657C9.12135 2.62187 9.98102 2.44325 10.8379 3.01443C11.7108 3.59713 12.1058 4.47875 11.9195 5.51595C11.7632 6.38389 11.4582 7.22877 11.1666 8.06357C10.7074 9.37592 10.3934 10.6933 10.6307 12.1065C10.6669 12.3226 10.4911 12.5768 10.4136 12.8138C10.1897 12.6856 9.84495 12.6107 9.76471 12.4191C9.5463 11.894 9.44024 11.3192 9.28952 10.7639L9.28882 10.7653Z" fill="#1E1E1E"/>
<path d="M11.15 14.4583C10.843 14.078 10.4962 13.7963 10.5422 13.6746C10.6483 13.3966 10.926 13.1625 11.1842 12.9925C11.2358 12.9586 11.6726 13.3137 11.6538 13.4499C11.6147 13.7387 11.3935 14.0016 11.1493 14.4575L11.15 14.4583Z" fill="#1E1E1E"/>
</g>
<defs>
<clipPath id="clip0_441_2545">
<rect width="18" height="17" fill="white" transform="translate(0.5)"/>
</clipPath>
</defs>
</svg>
