<svg width="19" height="18" viewBox="0 0 19 18" fill="none" xmlns="http://www.w3.org/2000/svg">
<g clip-path="url(#clip0_441_513)">
<path d="M1.94278 6.40965C1.75279 7.24949 1.35598 8.01599 1.173 8.87242C0.632463 11.4023 2.12576 14.6814 4.68821 15.6962C6.8903 16.5686 9.06855 16.462 11.2244 15.6672C14.042 14.6281 16.3226 12.9394 17.539 10.1142C19.5371 5.47505 15.7421 1.90819 12.398 1.36998C10.3333 1.03723 8.385 1.38727 6.57481 2.4132C6.15346 2.65186 5.79591 3.00191 5.40892 3.30007C5.22874 3.2385 5.04856 3.17762 4.86839 3.11605L4.94971 2.69821L4.93639 2.72035L5.38929 2.4125L5.38438 2.41596L5.54002 2.25962L5.5253 2.2693C5.65219 2.21534 5.77909 2.16069 5.90668 2.10673C6.39043 1.80581 6.87487 1.50488 7.35862 1.20395C9.81801 0.262427 12.2816 0.0763364 14.7284 1.22678C17.6435 2.59721 19.2629 5.33185 18.965 8.41722C18.8079 10.0457 18.1391 11.5005 17.0637 12.7257C14.4479 15.7045 11.1613 17.3558 7.11605 17.1227C2.73921 16.8688 -0.0517904 13.4873 0.690653 9.00939C0.842787 8.09208 1.26484 7.21836 1.5628 6.32457C1.68899 6.35293 1.81589 6.38129 1.94208 6.40965H1.94278Z" fill="#1E1E1E"/>
<path d="M7.35816 1.20284C6.87441 1.50377 6.38997 1.8047 5.90622 2.10562C5.77933 2.15958 5.65243 2.21423 5.52484 2.26819L5.53956 2.25851L5.38392 2.41485L5.38883 2.41139L4.93593 2.71924L4.94925 2.6971C4.82726 2.80433 4.70527 2.91156 4.58329 3.01947C4.64989 3.06375 4.71719 3.10802 4.78379 3.15161C4.61764 3.34462 4.45148 3.53832 4.28533 3.73132C4.29795 3.1772 3.96423 3.62756 3.80579 3.57014C3.80999 3.44077 3.76022 3.25537 3.82752 3.19173C4.83638 2.2426 5.90412 1.38478 7.35816 1.20215V1.20284Z" fill="#1E1E1E"/>
<path d="M1.94276 6.40997C1.81657 6.38161 1.68967 6.35325 1.56348 6.32488C2.13416 5.47814 2.70133 4.62862 3.28252 3.7881C3.33651 3.71062 3.47883 3.69263 3.58048 3.64697C3.60642 3.72791 3.63306 3.80954 3.659 3.89048L3.55314 4.02469C2.92147 4.44322 2.66698 5.11702 2.34518 5.74724C2.2281 5.97622 2.07877 6.18929 1.94346 6.40997H1.94276Z" fill="#1E1E1E"/>
<path d="M9.53587 8.81047C10.1395 9.74646 10.673 10.5711 11.203 11.3978C11.3089 11.5631 11.407 11.7333 11.4989 11.9069C11.6524 12.1968 11.6924 12.5461 11.3587 12.6589C11.1596 12.726 10.7614 12.58 10.6232 12.4009C10.0673 11.6821 9.57934 10.9128 9.06264 10.1643C8.97991 10.0446 8.87685 9.93878 8.7114 9.73955C7.72568 10.973 6.7645 12.1767 5.80192 13.379C5.58669 13.6481 5.41072 13.9781 5.13519 14.1594C4.93188 14.2936 4.52245 14.3427 4.34227 14.2244C4.17471 14.1144 4.07236 13.6952 4.14667 13.4814C4.2967 13.0497 4.54629 12.6354 4.82532 12.266C5.77528 11.0104 6.75609 9.77829 7.78457 8.46043C7.14869 7.72921 6.47145 6.95648 5.80122 6.17753C5.60842 5.95408 5.39319 5.7334 5.2691 5.47329C5.18848 5.3038 5.18006 4.93923 5.2719 4.88665C5.44647 4.78704 5.77388 4.75798 5.93372 4.85967C6.28286 5.08243 6.58783 5.38682 6.87317 5.6912C7.44595 6.30344 7.99419 6.9385 8.38259 7.37363C9.12434 6.75932 9.87098 6.12357 10.6359 5.51203C11.3671 4.92678 12.1053 4.34844 12.8688 3.80539C13.1212 3.62552 13.4535 3.53559 13.7641 3.46226C13.9043 3.42906 14.1679 3.49547 14.2156 3.59301C14.2857 3.73483 14.2808 4.00186 14.1854 4.11739C13.8896 4.47712 13.5348 4.7898 13.2046 5.12186C11.9861 6.34633 10.7677 7.57148 9.53657 8.8084L9.53587 8.81047Z" fill="#1E1E1E"/>
<path d="M4.28543 3.73202C4.45159 3.53902 4.61774 3.34601 4.7839 3.15231L4.81755 3.11426L4.86873 3.11564C5.04891 3.17721 5.22908 3.23809 5.40926 3.29966C5.00123 3.73756 4.59321 4.17615 4.18518 4.61405C4.08072 4.51029 3.97555 4.40583 3.87109 4.30206C4.00921 4.11182 4.14732 3.92157 4.28543 3.73133V3.73202Z" fill="#1E1E1E"/>
<path d="M3.87105 4.30273C3.97551 4.4065 4.08067 4.51096 4.18513 4.61473C3.9019 4.93295 3.61936 5.25118 3.33613 5.56871C3.26812 5.52374 3.20082 5.47808 3.13281 5.43312C3.14263 4.9378 3.55066 4.6424 3.87105 4.30273Z" fill="#1E1E1E"/>
<path d="M4.93652 2.71995L5.38942 2.41211L4.93652 2.71995Z" fill="#1E1E1E"/>
<path d="M5.52539 2.26902C5.65229 2.21506 5.77918 2.1604 5.90678 2.10645C5.77988 2.1604 5.65299 2.21506 5.52539 2.26902Z" fill="#1E1E1E"/>
<path d="M5.38379 2.41464L5.53943 2.2583L5.38379 2.41464Z" fill="#1E1E1E"/>
</g>
<defs>
<clipPath id="clip0_441_513">
<rect width="18.4286" height="16.7143" fill="white" transform="translate(0.571289 0.428711)"/>
</clipPath>
</defs>
</svg>
