<svg width="32" height="32" viewBox="0 0 32 32" fill="none" xmlns="http://www.w3.org/2000/svg">
<g clip-path="url(#clip0_383_25392)">
<path d="M24.1137 29.1358C18.6131 29.7317 13.1787 29.933 7.54442 29.4264C7.38592 28.9932 7.10062 28.488 7.0262 27.9562C6.88975 26.9751 6.85943 25.9794 6.81533 24.989C6.72023 22.8989 6.68577 20.8048 6.54932 18.716C6.43906 17.0218 6.21579 15.3342 6.03937 13.616C5.36127 13.2481 4.63907 12.8549 3.83417 12.4177C3.26082 11.8125 3.4207 10.9861 3.56404 10.2516C4.12085 7.41239 5.46464 4.98105 7.77872 3.09489C8.02819 2.89228 8.24182 2.64835 8.60981 2.28978C8.98469 2.28978 9.48913 2.27778 9.99357 2.29244C11.7564 2.3431 13.5178 2.39242 15.2792 2.46306C18.066 2.5737 20.8528 2.70833 23.6396 2.8123C24.2364 2.83496 24.7202 3.02158 25.0592 3.49079C26.3024 5.21299 27.5208 6.95918 27.8791 9.08527C28.0128 9.88105 28.0307 10.7155 27.9535 11.5179C27.8447 12.6403 27.1666 13.3948 26.0323 13.7387C25.86 13.7907 25.7001 13.8826 25.4382 13.9986C25.1364 16.4539 24.7422 18.9413 24.5493 21.4433C24.3908 23.4854 24.4886 25.5435 24.4321 27.5949C24.4183 28.0748 24.2405 28.5493 24.1137 29.1358ZM13.8857 18.604C12.8121 16.8672 12.932 15.2956 14.2096 14.2705C15.2475 13.4374 16.7925 13.4761 17.8441 14.3558C18.3706 14.7957 18.649 15.3596 18.7579 16.0101C18.9191 16.9711 18.405 17.7069 17.8937 18.3374C18.4726 19.6504 19.0156 20.8821 19.5834 22.1697C20.901 22.1057 22.2062 22.0418 23.6176 21.9738C23.9483 19.2705 24.2736 16.6112 24.5713 14.1759C23.6493 13.2548 22.8774 12.483 22.118 11.7259C20.2427 12.9398 18.9618 13.513 18.2755 13.4454C17.9557 13.1628 17.6277 12.8229 17.2473 12.551C16.838 12.2577 16.379 12.0298 15.909 11.7539C15.6899 11.7859 15.4404 11.8219 15.1923 11.8579C14.958 12.2604 14.6341 12.551 14.2882 12.8136C12.9857 13.7973 11.5207 13.8933 10.4002 12.5803C10.1286 12.2631 9.77718 12.0085 9.38576 11.6566C8.49541 12.2004 7.67122 12.703 6.83187 13.2148C7.07582 16.266 7.31425 19.2492 7.55131 22.215H11.5882C12.3931 20.9487 13.1181 19.8104 13.8844 18.6027L13.8857 18.604ZM12.0858 3.5721C10.6234 5.94479 9.24932 8.40279 9.29893 11.2647C9.88882 11.6686 10.425 11.9805 10.8949 12.367C12.0499 13.3188 12.9609 12.8882 13.7355 12.2471C14.1986 11.8632 14.6906 11.5113 15.2419 11.0901C15.2599 11.0087 15.326 10.8381 15.3274 10.6662C15.3481 8.61073 15.3687 6.55662 15.3619 4.50118C15.3619 4.20793 15.2144 3.916 15.122 3.5721H12.0844H12.0858ZM21.1202 3.84002C21.5667 6.40333 22.0023 8.90665 22.4364 11.3926C23.3902 11.9738 23.7692 13.1962 24.909 13.2881C26.4127 13.1668 27.0453 12.3724 27.1404 11.1154C27.1831 10.5515 27.2492 9.9757 27.1762 9.41985C26.8964 7.27509 25.8476 5.48091 24.3811 3.84002H21.1188H21.1202ZM12.5847 22.1337H18.864C18.3113 20.9314 17.8317 19.8863 17.3272 18.7893C16.3211 19.2439 15.4156 19.4651 14.5239 19.0252C13.5439 19.925 12.9168 20.9354 12.5847 22.1337ZM13.6583 16.4233C13.7011 17.547 14.1283 18.2255 15.089 18.5214C16.0606 18.8213 16.8049 18.3721 17.4361 17.7443C18.2479 16.9365 18.2259 15.8128 17.4458 15.0796C16.6602 14.3412 15.4928 14.3239 14.6865 15.1063C14.2799 15.5009 13.9836 16.0007 13.6597 16.4233H13.6583Z" fill="#1D4648"/>
</g>
<defs>
<clipPath id="clip0_383_25392">
<rect width="24.5714" height="27.4286" fill="white" transform="translate(3.42871 2.28564)"/>
</clipPath>
</defs>
</svg>
