<svg width="20" height="20" viewBox="0 0 20 20" fill="none" xmlns="http://www.w3.org/2000/svg">
<g id="bi:quote">
<path id="Vector" d="M15 15C15.3315 15 15.6494 14.8683 15.8839 14.6339C16.1183 14.3995 16.25 14.0815 16.25 13.75V10.6975C16.25 10.366 16.1183 10.048 15.8839 9.81362C15.6494 9.5792 15.3315 9.4475 15 9.4475H13.265C13.265 9.00875 13.2912 8.56875 13.3425 8.13C13.42 7.665 13.55 7.25125 13.73 6.89C13.9112 6.5275 14.1437 6.24375 14.4287 6.03625C14.7125 5.80375 15.0737 5.6875 15.5137 5.6875V3.75C14.79 3.75 14.1575 3.905 13.6137 4.215C13.0747 4.52186 12.6113 4.94556 12.2575 5.455C11.9024 6.01664 11.6407 6.63212 11.4825 7.2775C11.3231 7.9897 11.2451 8.7177 11.25 9.4475V13.75C11.25 14.0815 11.3817 14.3995 11.6161 14.6339C11.8505 14.8683 12.1685 15 12.5 15H15ZM7.49997 15C7.83149 15 8.14944 14.8683 8.38386 14.6339C8.61828 14.3995 8.74997 14.0815 8.74997 13.75V10.6975C8.74997 10.366 8.61828 10.048 8.38386 9.81362C8.14944 9.5792 7.83149 9.4475 7.49997 9.4475H5.76497C5.76497 9.00875 5.79122 8.56875 5.84247 8.13C5.91997 7.665 6.04997 7.25125 6.22997 6.89C6.41122 6.5275 6.64372 6.24375 6.92872 6.03625C7.21247 5.80375 7.57372 5.6875 8.01372 5.6875V3.75C7.28997 3.75 6.65747 3.905 6.11372 4.215C5.57471 4.52186 5.11128 4.94556 4.75747 5.455C4.40238 6.01664 4.14065 6.63212 3.98247 7.2775C3.82308 7.9897 3.74508 8.7177 3.74997 9.4475V13.75C3.74997 14.0815 3.88167 14.3995 4.11609 14.6339C4.35051 14.8683 4.66845 15 4.99997 15H7.49997Z" fill="black"/>
</g>
</svg>
