<svg width="20" height="21" viewBox="0 0 20 21" fill="none" xmlns="http://www.w3.org/2000/svg">
<g id="Icons">
<path id="Vector" d="M2.5 5.5H4.16667H17.5" stroke="#D83232" stroke-width="1.5" stroke-linecap="round" stroke-linejoin="round"/>
<path id="Vector_2" d="M6.6665 5.50033V3.83366C6.6665 3.39163 6.8421 2.96771 7.15466 2.65515C7.46722 2.34259 7.89114 2.16699 8.33317 2.16699H11.6665C12.1085 2.16699 12.5325 2.34259 12.845 2.65515C13.1576 2.96771 13.3332 3.39163 13.3332 3.83366V5.50033M15.8332 5.50033V17.167C15.8332 17.609 15.6576 18.0329 15.345 18.3455C15.0325 18.6581 14.6085 18.8337 14.1665 18.8337H5.83317C5.39114 18.8337 4.96722 18.6581 4.65466 18.3455C4.3421 18.0329 4.1665 17.609 4.1665 17.167V5.50033H15.8332Z" stroke="#D83232" stroke-width="1.5" stroke-linecap="round" stroke-linejoin="round"/>
<path id="Vector_3" d="M8.3335 9.66699V14.667" stroke="#D83232" stroke-width="1.5" stroke-linecap="square" stroke-linejoin="round"/>
<path id="Vector_4" d="M11.6665 9.66699V14.667" stroke="#D83232" stroke-width="1.5" stroke-linecap="square" stroke-linejoin="round"/>
</g>
</svg>
