<svg width="21" height="21" viewBox="0 0 21 21" fill="none" xmlns="http://www.w3.org/2000/svg">
<g id="Frame" clip-path="url(#clip0_1196_34731)">
<path id="Vector" d="M7.17866 10.3318C7.62644 10.9656 8.06982 11.6032 8.52347 12.2331C8.75983 12.561 9.01414 12.876 9.27465 13.2145C9.44045 13.1111 9.58514 13.0224 9.7279 12.9311C9.77141 12.9033 9.81205 12.87 9.851 12.8355C10.5408 12.2311 11.3019 11.8113 12.2094 11.5526C13.3649 11.2232 14.4767 10.7263 15.5817 10.2433C16.4099 9.88144 17.1971 9.42765 18.0026 9.01419C18.04 8.99482 18.0737 8.96808 18.1005 8.92653C16.0419 9.91907 13.9431 10.8056 11.6831 11.42C11.7902 11.3274 11.863 11.2611 11.9391 11.1993C13.7547 9.7338 15.6513 8.38515 17.6928 7.24765C17.7947 7.19118 17.9576 7.18317 18.0703 7.21946C18.3502 7.30921 18.6147 7.44366 18.8901 7.54904C19.4254 7.75331 19.5913 8.03718 19.516 8.70347C19.4644 9.15767 19.3023 9.61104 19.1228 10.0368C18.3379 11.9018 17.5203 13.7531 16.7316 15.6168C16.3611 16.4926 16.0258 17.3832 15.6804 18.2694C15.4555 18.8461 15.2753 18.9876 14.6772 18.8152C13.0703 18.3522 11.4615 17.8871 9.87866 17.3497C7.34886 16.49 4.87165 15.4931 2.47449 14.312C2.02811 14.0921 1.60147 13.8174 1.20512 13.5164C0.968354 13.3368 0.924034 13.0266 1.01724 12.7304C1.36267 11.6338 1.70074 10.535 2.06363 9.44458C2.64555 7.69687 3.2434 5.95508 3.83907 4.21215C3.90317 4.02495 3.98912 3.84323 4.08207 3.66786C4.14282 3.55378 4.19067 3.40249 4.3868 3.44588C4.42095 3.45338 4.49225 3.36796 4.52083 3.31221C4.73464 2.89835 5.0761 2.79434 5.50326 2.90592C6.82422 3.25029 8.16925 3.5262 9.45923 3.96151C11.5121 4.65391 13.528 5.45311 15.5592 6.20762C15.6234 6.23122 15.6832 6.26497 15.6934 6.26981C13.701 7.69385 11.6933 9.12877 9.67396 10.5725C9.23406 9.83746 8.77441 9.07872 8.32437 8.31447C7.96059 7.6971 7.90062 7.67481 7.27368 7.99624C7.16705 8.05098 7.05818 8.10111 6.88704 8.1835C6.30759 6.87849 5.73458 5.58885 5.16205 4.29914L5.10554 4.32055C5.6222 5.63257 6.13942 6.945 6.66862 8.28883C6.68337 8.25914 6.68013 8.27955 6.66847 8.28786C6.1632 8.64911 6.14722 8.69938 6.46854 9.22555C6.69739 9.60036 6.94448 9.96431 7.18287 10.3331C7.09121 10.3596 6.99736 10.3785 6.90968 10.4143C6.21577 10.6977 5.51766 10.9703 4.83219 11.2722C3.76038 11.7444 2.69668 12.2362 1.63131 12.7238C1.52286 12.7733 1.41195 12.8357 1.32988 12.9193C1.28648 12.9635 1.30444 13.0671 1.29506 13.1432C1.36306 13.1343 1.43927 13.1426 1.49762 13.1139C1.61987 13.0537 1.728 12.9644 1.85088 12.9051C3.62555 12.0457 5.40214 11.189 7.17769 10.332L7.17866 10.3318ZM12.2981 11.6772L12.2457 11.699C12.2557 11.7307 12.2624 11.7635 12.2757 11.7937C12.8272 13.039 13.3793 14.2847 13.9312 15.53C14.2723 16.2996 14.6101 17.0708 14.9558 17.8382C15.0198 17.9802 14.9992 18.2057 15.2547 18.1919C15.242 18.0433 15.2698 17.8758 15.2102 17.749C14.4895 16.2213 13.7568 14.6995 13.0253 13.1765C12.7849 12.6758 12.5403 12.1767 12.2981 11.6772Z" fill="#1E1E1E"/>
</g>
<defs>
<clipPath id="clip0_1196_34731">
<rect width="19.0786" height="17.3881" fill="white" transform="translate(-0.507812 3.76172) rotate(-9.03357)"/>
</clipPath>
</defs>
</svg>
