<svg width="24" height="24" viewBox="0 0 24 24" fill="none" xmlns="http://www.w3.org/2000/svg">
<g id="fa-solid:gift">
<path id="Vector" d="M4.125 18.4286C4.125 19.0212 4.62773 19.5 5.25 19.5H10.875V14.1429H4.125V18.4286ZM13.125 19.5H18.75C19.3723 19.5 19.875 19.0212 19.875 18.4286V14.1429H13.125V19.5ZM19.875 8.78571H18.3949C18.6129 8.38058 18.75 7.93192 18.75 7.44643C18.75 5.82254 17.3613 4.5 15.6562 4.5C14.1938 4.5 13.248 5.21317 12.0352 6.78683C10.8223 5.21317 9.87656 4.5 8.41406 4.5C6.70898 4.5 5.32031 5.82254 5.32031 7.44643C5.32031 7.93192 5.45391 8.38058 5.67539 8.78571H4.125C3.50273 8.78571 3 9.26451 3 9.85714V12.5357C3 12.8304 3.25312 13.0714 3.5625 13.0714H20.4375C20.7469 13.0714 21 12.8304 21 12.5357V9.85714C21 9.26451 20.4973 8.78571 19.875 8.78571ZM8.41055 8.78571C7.63359 8.78571 7.0043 8.18638 7.0043 7.44643C7.0043 6.70647 7.63359 6.10714 8.41055 6.10714C9.11016 6.10714 9.62695 6.21763 11.4375 8.78571H8.41055ZM15.6562 8.78571H12.6293C14.4363 6.22433 14.9391 6.10714 15.6562 6.10714C16.4332 6.10714 17.0625 6.70647 17.0625 7.44643C17.0625 8.18638 16.4332 8.78571 15.6562 8.78571Z" fill="#1D4648"/>
</g>
</svg>
