<svg width="17" height="22" viewBox="0 0 17 22" fill="none" xmlns="http://www.w3.org/2000/svg">
<g id="Frame" clip-path="url(#clip0_1560_9547)">
<path id="Vector" d="M8.64262 6.616C8.85346 6.33609 9.05526 6.04903 9.2799 5.77984C9.35478 5.68994 9.48914 5.64602 9.59589 5.58115C9.63784 5.70067 9.73025 5.82888 9.71113 5.9387C9.67502 6.14454 9.57465 6.33966 9.50083 6.53938C8.65324 7.60488 7.46631 7.85619 6.16201 7.82554C5.90444 7.84495 5.73025 7.91187 5.75096 8.22702C5.81787 9.23429 5.8662 10.2431 5.90709 11.2519C5.91931 11.5456 6.01384 11.6815 6.34841 11.66C6.99472 11.6181 7.64422 11.5803 8.29106 11.5941C9.15776 11.612 10.0245 11.6682 10.8896 11.7315C11.5077 11.777 12.1232 11.8562 12.7387 11.9292C13.392 12.0063 14.0441 12.0937 14.6968 12.1764C14.683 12.2536 14.6686 12.3302 14.6548 12.4073C11.8901 12.4272 9.12005 12.3041 6.36753 12.6923C6.10784 12.7291 6.03667 12.8052 6.05208 13.0366C6.08766 13.5719 6.12855 14.1082 6.1312 14.6445C6.14129 16.4349 6.13811 18.2247 6.1328 20.015C6.13227 20.2377 6.08819 20.4604 6.06429 20.6826C6.01118 20.6105 5.92781 20.5446 5.91134 20.4655C5.8593 20.2223 5.83859 19.9736 5.79557 19.7289C5.50136 18.0505 5.14554 16.3807 5.11315 14.6686C5.10412 14.2099 5.03402 13.7522 5.00215 13.2935C4.98144 12.9957 4.78867 12.8951 4.52791 12.937C3.79026 13.055 3.05632 13.1965 2.32079 13.3282C2.13651 13.3482 1.9517 13.3681 1.76742 13.388C1.73184 13.1204 1.69626 12.8522 1.66068 12.5845C1.82159 12.5263 1.9825 12.4686 2.14342 12.4109C2.73503 12.2418 3.32664 12.0727 3.93524 11.8986C3.91347 11.59 3.88107 11.2841 3.87151 10.9781C3.83752 9.89219 4.085 8.85478 4.49233 7.85057C4.5943 7.59927 4.56987 7.41947 4.3208 7.2836C4.13333 7.1983 3.94533 7.113 3.75786 7.02718C3.23104 6.58433 2.6628 6.17877 2.1875 5.68994C1.45515 4.93398 0.721751 4.15963 0.434974 3.11558C0.392489 2.9603 0.369653 2.79787 0.359563 2.63748C0.335134 2.24367 0.479584 1.91165 0.850269 1.72726C1.21511 1.54593 1.59801 1.64553 1.86726 1.89122C2.43922 2.41274 3.02234 2.94038 3.49392 3.54311C4.11899 4.34249 4.64209 5.21593 5.19546 6.03728C5.20555 5.08109 5.45675 4.11672 5.81044 3.17074C6.07385 2.46637 6.43604 1.82533 7.01012 1.31097C7.12164 1.21085 7.25548 1.12045 7.39621 1.06579C7.92462 0.859433 8.34469 1.09746 8.31283 1.6486C8.28097 2.2028 8.1705 2.76211 8.01915 3.29946C7.70741 4.40378 7.21299 5.43404 6.50879 6.3652C6.41957 6.4832 6.36647 6.62673 6.29637 6.75851C6.16625 6.91277 6.03561 7.06651 5.9055 7.22077C5.86248 7.32651 5.75786 7.45931 5.79238 7.53031C5.82956 7.60795 5.9926 7.65801 6.10571 7.66873C6.74193 7.72849 7.3277 7.58241 7.85505 7.22997C8.11793 7.02565 8.38081 6.82083 8.64368 6.61651L8.64262 6.616ZM4.64953 8.94417C4.64475 8.85631 4.63997 8.76897 4.63519 8.68111C4.20024 9.61841 3.83912 10.5618 4.17263 11.5911C4.23051 11.7698 4.39674 11.9164 4.51304 12.0778C4.54491 12.061 4.57677 12.0446 4.60863 12.0278C4.61713 11.9568 4.6251 11.8853 4.63359 11.8143C4.86726 11.8173 4.90391 11.6835 4.89169 11.494C4.85664 10.9465 4.84337 10.3979 4.79769 9.85132C4.77273 9.54741 4.70051 9.24655 4.64953 8.94417ZM5.1312 6.39738C5.02021 6.18541 4.96126 6.01583 4.85505 5.87996C4.32451 5.20368 3.81841 4.5039 3.23104 3.87614C2.72388 3.3342 2.1243 2.87091 1.55075 2.38924C1.46418 2.31671 1.29583 2.33459 1.16519 2.31058C1.13758 2.45207 1.04942 2.61501 1.09403 2.73045C1.21936 3.05531 1.33885 3.41286 1.56987 3.66467C2.22095 4.37365 2.89647 5.06883 3.62403 5.70374C4.01171 6.04188 4.45303 6.39432 5.13174 6.39687L5.1312 6.39738ZM5.40258 6.03626C6.52844 4.76746 7.35691 3.36433 7.56456 1.67874C6.10837 2.79174 5.68511 4.38182 5.40258 6.03626Z" fill="#1E1E1E"/>
<path id="Vector_2" d="M6.16265 7.82538C7.46695 7.85602 8.65389 7.60472 9.50147 6.53922C10.631 6.51572 11.7606 6.4723 12.8897 6.4769C13.5641 6.47945 14.2407 6.53819 14.912 6.60868C15.2912 6.64852 15.6698 6.74098 16.0304 6.86101C16.1292 6.89421 16.2269 7.121 16.212 7.24615C16.1303 7.92805 16.0097 8.60586 15.9093 9.28572C15.6762 10.8681 15.4207 12.448 15.2237 14.0345C14.9529 16.2202 14.725 18.4104 14.4893 20.6002C14.4754 20.7273 14.5275 20.8811 14.5992 20.9924C14.7665 21.2524 14.7091 21.4562 14.3947 21.5262C14.2211 21.5645 14.0309 21.5722 13.853 21.5533C11.1563 21.2678 8.45367 21.2059 5.74523 21.3531C5.61618 21.3602 5.48554 21.3479 5.35596 21.3449C5.25293 21.2529 5.1499 21.161 5.04688 21.0696C5.41172 21.0098 5.77603 20.9495 6.14087 20.8898C7.18548 20.7922 8.2285 20.6441 9.27577 20.6088C10.7144 20.5603 12.1557 20.5966 13.6146 20.5966C13.6454 20.4628 13.6815 20.3065 13.7176 20.1507C13.7213 20.1006 13.725 20.0511 13.7288 20.001C13.7516 19.8003 13.7744 19.6 13.7973 19.3993C13.801 19.3492 13.8047 19.2992 13.8079 19.2491C13.8286 19.0734 13.8493 18.8977 13.8695 18.722C13.8753 18.6474 13.8812 18.5723 13.887 18.4978C13.9072 18.322 13.9269 18.1463 13.947 17.9701C13.9534 17.8955 13.9598 17.8205 13.9662 17.7459C13.989 17.5697 14.0113 17.3934 14.0341 17.2177C14.0384 17.1687 14.0426 17.1191 14.0469 17.0701C14.0931 16.7437 14.1388 16.4168 14.185 16.0904L14.1998 15.9413C14.2476 15.6149 14.2949 15.289 14.3427 14.9626C14.348 14.9131 14.3533 14.8635 14.3581 14.814C14.373 14.7133 14.3878 14.6127 14.4032 14.5121C14.4138 14.4375 14.425 14.3624 14.4356 14.2879C14.45 14.1872 14.4648 14.0866 14.4792 13.986C14.4908 13.9114 14.5031 13.8368 14.5147 13.7617C14.562 13.3102 14.6087 12.8582 14.656 12.4066C14.6698 12.3295 14.6842 12.2529 14.698 12.1757C14.9895 10.6081 15.2811 9.04054 15.579 7.44024C15.3751 7.41164 15.1993 7.36976 15.0219 7.36465C13.2689 7.31459 11.5158 7.26658 9.76222 7.23389C9.61512 7.23133 9.44624 7.31612 9.32037 7.40449C8.34321 8.08843 7.28214 8.14717 6.16318 7.82538H6.16265Z" fill="#1E1E1E"/>
<path id="Vector_3" d="M5.0472 21.0701C5.15023 21.1621 5.25326 21.254 5.35628 21.3454C4.6967 21.3863 4.03711 21.4328 3.37646 21.4655C3.13801 21.4772 2.96064 21.3929 2.90541 21.1289C2.69351 20.1144 2.40992 19.1102 2.26282 18.0876C2.0472 16.59 1.92612 15.0801 1.76574 13.5753C1.75936 13.5135 1.7668 13.4502 1.76786 13.3879C1.95214 13.368 2.13695 13.348 2.32123 13.3281C2.61916 14.9626 2.91497 16.5977 3.21449 18.2322C3.37912 19.1291 3.55225 20.0245 3.71794 20.9215C3.76467 21.1753 3.84699 21.323 4.17253 21.2213C4.45134 21.1345 4.75352 21.1176 5.04561 21.0696L5.0472 21.0701Z" fill="#1E1E1E"/>
<path id="Vector_4" d="M2.14499 12.4112C1.98408 12.469 1.82316 12.5272 1.66225 12.5849C1.44292 11.216 1.21987 9.84709 1.00638 8.47716C0.96549 8.2136 0.861401 7.84634 1.25545 7.8019C1.62614 7.76002 1.56347 8.15639 1.59109 8.37143C1.71908 9.3741 1.80192 10.3819 1.923 11.3856C1.96443 11.7314 2.06905 12.07 2.14499 12.4118V12.4112Z" fill="#1E1E1E"/>
<path id="Vector_5" d="M8.64248 6.61523C8.3796 6.81955 8.11672 7.02437 7.85385 7.22869C7.20382 7.22562 6.55432 7.22256 5.9043 7.22001C6.03441 7.06575 6.16505 6.912 6.29516 6.75774C7.07743 6.71024 7.85969 6.66274 8.64248 6.61523Z" fill="#1E1E1E"/>
<path id="Vector_6" d="M3.76 7.02734C3.94747 7.11265 4.13546 7.19795 4.32293 7.28376C3.41587 7.33892 2.50827 7.39358 1.60121 7.44874C1.59643 7.41401 1.59218 7.37928 1.5874 7.34454C2.31178 7.23881 3.03562 7.13308 3.76 7.02785V7.02734Z" fill="#1E1E1E"/>
<path id="Vector_7" d="M4.63311 11.8129C4.62461 11.8839 4.61664 11.9554 4.60815 12.0264C4.57628 12.0432 4.54442 12.0596 4.51256 12.0764C4.39625 11.915 4.23003 11.7684 4.17214 11.5896C3.83916 10.5604 4.20029 9.61698 4.6347 8.67969C4.63948 8.76754 4.64426 8.85489 4.64904 8.94274C4.57363 9.45149 4.44617 9.95921 4.43927 10.4685C4.43343 10.9159 4.56301 11.3649 4.63258 11.8129H4.63311Z" fill="#1E1E1E"/>
<path id="Vector_8" d="M14.4795 13.986C14.4912 13.9114 14.5034 13.8368 14.5151 13.7617C14.5034 13.8363 14.4912 13.9109 14.4795 13.986Z" fill="#1E1E1E"/>
<path id="Vector_9" d="M13.9473 17.9703C13.9536 17.8958 13.96 17.8207 13.9664 17.7461C13.96 17.8207 13.9536 17.8958 13.9473 17.9703Z" fill="#1E1E1E"/>
<path id="Vector_10" d="M13.8701 18.7223C13.876 18.6477 13.8818 18.5726 13.8876 18.498C13.8818 18.5726 13.876 18.6477 13.8701 18.7223Z" fill="#1E1E1E"/>
<path id="Vector_11" d="M14.4033 14.5113C14.4139 14.4368 14.4251 14.3617 14.4357 14.2871C14.4251 14.3617 14.4139 14.4368 14.4033 14.5113Z" fill="#1E1E1E"/>
<path id="Vector_12" d="M13.7173 20.1516L13.7284 20.002C13.7247 20.052 13.721 20.1016 13.7173 20.1516Z" fill="#1E1E1E"/>
<path id="Vector_13" d="M13.7974 19.4002C13.8011 19.3501 13.8047 19.3001 13.8079 19.25C13.8042 19.3001 13.8005 19.3501 13.7974 19.4002Z" fill="#1E1E1E"/>
<path id="Vector_14" d="M14.0347 17.2179C14.0389 17.1689 14.0431 17.1193 14.0473 17.0703C14.0431 17.1193 14.0389 17.1689 14.0347 17.2179Z" fill="#1E1E1E"/>
<path id="Vector_15" d="M14.1851 16.0906L14.1998 15.9414L14.1851 16.0906Z" fill="#1E1E1E"/>
<path id="Vector_16" d="M14.3428 14.9631C14.348 14.9135 14.3533 14.864 14.3581 14.8145C14.3528 14.864 14.3475 14.9135 14.3428 14.9631Z" fill="#1E1E1E"/>
</g>
<defs>
<clipPath id="clip0_1560_9547">
<rect width="15.8571" height="20.5714" fill="white" transform="translate(0.356934 0.992188)"/>
</clipPath>
</defs>
</svg>
