<svg width="24" height="25" viewBox="0 0 24 25" fill="none" xmlns="http://www.w3.org/2000/svg">
<g id="help-circle">
<path id="Icon" d="M9.09 9.5C9.32511 8.83167 9.78915 8.26811 10.4 7.90913C11.0108 7.55016 11.7289 7.41894 12.4272 7.53871C13.1255 7.65849 13.7588 8.02153 14.2151 8.56353C14.6713 9.10553 14.9211 9.79152 14.92 10.5C14.92 12.5 11.92 13.5 11.92 13.5M12 17.5H12.01M22 12.5C22 18.0228 17.5228 22.5 12 22.5C6.47715 22.5 2 18.0228 2 12.5C2 6.97715 6.47715 2.5 12 2.5C17.5228 2.5 22 6.97715 22 12.5Z" stroke="#1D4648" stroke-width="1.33333" stroke-linecap="round" stroke-linejoin="round"/>
</g>
</svg>
