<svg width="16" height="16" viewBox="0 0 16 16" fill="none" xmlns="http://www.w3.org/2000/svg">
<g id="notifications-none">
<path id="Vector" d="M8.00033 14.6665C8.73366 14.6665 9.33366 14.0665 9.33366 13.3332H6.66699C6.66699 14.0665 7.26699 14.6665 8.00033 14.6665ZM12.0003 10.6665V7.33317C12.0003 5.2865 10.9137 3.57317 9.00033 3.11984V2.6665C9.00033 2.11317 8.55366 1.6665 8.00033 1.6665C7.44699 1.6665 7.00033 2.11317 7.00033 2.6665V3.11984C5.09366 3.57317 4.00033 5.27984 4.00033 7.33317V10.6665L2.66699 11.9998V12.6665H13.3337V11.9998L12.0003 10.6665ZM10.667 11.3332H5.33366V7.33317C5.33366 5.67984 6.34033 4.33317 8.00033 4.33317C9.66033 4.33317 10.667 5.67984 10.667 7.33317V11.3332Z" fill="#0C1116"/>
</g>
</svg>
