<svg width="21" height="20" viewBox="0 0 21 20" fill="none" xmlns="http://www.w3.org/2000/svg">
<g id="Icons" clip-path="url(#clip0_994_10762)">
<path id="Vector" d="M13.5 17.5V15.8333C13.5 14.9493 13.1488 14.1014 12.5237 13.4763C11.8986 12.8512 11.0507 12.5 10.1667 12.5H4.33333C3.44928 12.5 2.60143 12.8512 1.97631 13.4763C1.35119 14.1014 1 14.9493 1 15.8333V17.5" stroke="#1D4648" stroke-width="1.5" stroke-linecap="round" stroke-linejoin="round"/>
<path id="Vector_2" d="M7.25008 9.16667C9.09103 9.16667 10.5834 7.67428 10.5834 5.83333C10.5834 3.99238 9.09103 2.5 7.25008 2.5C5.40913 2.5 3.91675 3.99238 3.91675 5.83333C3.91675 7.67428 5.40913 9.16667 7.25008 9.16667Z" stroke="#1D4648" stroke-width="1.5" stroke-linecap="round" stroke-linejoin="round"/>
<path id="Vector_3" d="M16.8335 6.66675V11.6667" stroke="#1D4648" stroke-width="2" stroke-linecap="round" stroke-linejoin="round"/>
<path id="Vector_4" d="M19.3335 9.16675H14.3335" stroke="#1D4648" stroke-width="1.5" stroke-linecap="round" stroke-linejoin="round"/>
</g>
<defs>
<clipPath id="clip0_994_10762">
<rect width="20" height="20" fill="white" transform="translate(0.166748)"/>
</clipPath>
</defs>
</svg>
