<svg width="21" height="21" viewBox="0 0 21 21" fill="none" xmlns="http://www.w3.org/2000/svg">
<g id="Social icon">
<path id="Vector" d="M15.0804 12.3836C15.0734 12.2126 15.003 12.0729 14.9323 11.9775C14.8599 11.88 14.7603 11.7919 14.6405 11.7338L14.6338 11.7306L14.6271 11.7276L14.1421 11.5101L14.1421 11.5101L14.1372 11.5079L13.9375 11.9663L14.1372 11.5079L14.1372 11.5079L14.1371 11.5079L14.1367 11.5077L14.1352 11.507L14.1291 11.5044L14.1055 11.4941L14.0177 11.4557C13.943 11.4231 13.8389 11.3774 13.721 11.3255C13.4846 11.2215 13.1949 11.0932 12.9762 10.9937L12.9762 10.9936L12.9692 10.9906C12.8711 10.9477 12.7663 10.9225 12.6595 10.9159C12.5361 10.9052 12.4118 10.92 12.2943 10.9595C12.1856 10.996 12.0849 11.0529 11.9977 11.127C11.9916 11.1318 11.9869 11.1356 11.9839 11.1381C11.9597 11.1581 11.9398 11.1781 11.9289 11.1893C11.9037 11.2152 11.8701 11.2523 11.8239 11.3053C11.7385 11.4031 11.5931 11.5746 11.3434 11.8763C11.299 11.8575 11.2759 11.8475 11.2522 11.8371C11.2301 11.8275 11.2076 11.8176 11.1667 11.8003C10.737 11.6125 10.3391 11.3589 9.98735 11.0488L9.98549 11.0471C9.92054 10.9904 9.86304 10.934 9.79485 10.867C9.76614 10.8388 9.73553 10.8087 9.70167 10.776L9.69999 10.7744C9.40338 10.4903 9.14489 10.169 8.93098 9.81838L8.93099 9.81837L8.92891 9.81501L8.91985 9.80042C8.98042 9.73186 9.05688 9.64372 9.11065 9.57521L14.4125 13.3263L14.8635 13.5421C14.961 13.3385 15.0353 13.0201 15.0654 12.7768L15.0655 12.7756C15.0894 12.579 15.0838 12.4588 15.0807 12.3913C15.0806 12.3887 15.0805 12.3861 15.0804 12.3836ZM15.0804 12.3836C15.0804 12.3844 15.0804 12.3852 15.0805 12.386L14.5808 12.4046L15.0803 12.3823C15.0803 12.3827 15.0804 12.3831 15.0804 12.3836ZM14.598 13.9244C14.5982 13.9242 14.5985 13.924 14.5987 13.9237L14.2375 13.578L14.5973 13.9252C14.5975 13.9249 14.5978 13.9247 14.598 13.9244ZM14.598 13.9244C14.483 14.0445 14.3922 14.1218 14.262 14.2183M14.598 13.9244L13.9625 13.818M14.262 14.2183C14.2627 14.2178 14.2634 14.2173 14.264 14.2168L13.9625 13.818M14.262 14.2183C14.2614 14.2188 14.2608 14.2193 14.2601 14.2197L13.9625 13.818M14.262 14.2183C14.2242 14.2469 14.1941 14.2686 14.1722 14.284C14.161 14.2918 14.152 14.298 14.1451 14.3027L14.1365 14.3084L14.1334 14.3105L14.1322 14.3113L14.1316 14.3116L14.1314 14.3118L14.1313 14.3119L14.1312 14.3119L13.8583 13.893C13.8583 13.893 13.8942 13.8696 13.9625 13.818M7.87225 6.08903L7.8587 6.0755L7.64717 6.08392C7.58399 6.0847 7.52083 6.08729 7.45777 6.09168L7.45783 6.0926C7.28463 6.10394 7.11544 6.14983 6.96022 6.22759L6.94885 6.23329L6.93778 6.23955C6.809 6.31248 6.69114 6.40315 6.58766 6.50889C6.47443 6.61698 6.39724 6.71949 6.34727 6.78584C6.33927 6.79646 6.33197 6.80616 6.32533 6.8148C6.32528 6.81486 6.32524 6.81492 6.32519 6.81498L6.72166 7.11964M7.87225 6.08903L5.75 8.52001L6.24999 8.51797C6.24747 8.0124 6.41343 7.52039 6.72166 7.11964M7.87225 6.08903C7.92403 6.09302 7.97414 6.09859 8.01516 6.10315L8.01854 6.10353L8.02265 6.10398L8.02265 6.104C8.16082 6.12051 8.29855 6.16845 8.41789 6.24094C8.5336 6.31121 8.66999 6.42832 8.74843 6.60648L7.87225 6.08903ZM6.72166 7.11964C6.73089 7.10762 6.74002 7.09555 6.74923 7.08339C6.80069 7.0154 6.85433 6.94451 6.93916 6.86464L6.72166 7.11964ZM9.35416 11.1355C9.3811 11.1615 9.40786 11.1878 9.43463 11.2141C9.50724 11.2854 9.57995 11.3568 9.65666 11.4238L9.35416 11.1355ZM9.35416 11.1355C9.02631 10.8215 8.74059 10.4663 8.50416 10.0788L8.45499 9.99964L9.35416 11.1355ZM10.5008 18.3346H10.5C9.1161 18.3369 7.75654 17.9706 6.56101 17.2735L6.37985 17.1679L6.17754 17.2231L2.88293 18.1221L3.77995 14.8259L3.83498 14.6237L3.72937 14.4427C3.0317 13.2468 2.66518 11.8867 2.66749 10.5021V10.5013C2.66749 6.17494 6.17447 2.66797 10.5008 2.66797C14.8272 2.66797 18.3342 6.17494 18.3342 10.5013C18.3342 14.8277 14.8272 18.3346 10.5008 18.3346ZM12.8708 14.7681C13.1855 14.7519 13.4928 14.6669 13.7711 14.5193L5.75 8.52012C5.75203 9.01423 5.8809 9.48111 6.06876 9.90005L6.06876 9.90006L6.06962 9.90195C6.43923 10.7171 7.03804 11.5616 7.8137 12.3346L7.81393 12.3348C7.83763 12.3584 7.86164 12.3824 7.88596 12.4067C8.03833 12.5589 8.20293 12.7233 8.3779 12.8774L8.37792 12.8774C9.3558 13.7384 10.5211 14.3593 11.7811 14.6907L11.8066 14.6974L11.8326 14.7014L12.306 14.7739L12.3302 14.7776L12.3547 14.7789C12.5116 14.7874 12.6714 14.7788 12.7989 14.7719C12.8236 14.7706 12.8471 14.7693 12.8692 14.7682L12.8708 14.7681Z" fill="#1D4648" stroke="#1E1E1E"/>
</g>
</svg>
