<svg width="16" height="16" viewBox="0 0 16 16" fill="none" xmlns="http://www.w3.org/2000/svg">
<g id="emojione:flag-for-united-kingdom" clip-path="url(#clip0_1656_412)">
<path id="Vector" d="M5.4998 15.075V11.625L2.9248 13.525C3.6498 14.2 4.5248 14.725 5.4998 15.075ZM10.4998 15.075C11.4748 14.725 12.3498 14.2 13.0748 13.525L10.4998 11.6V15.075ZM0.924805 10.5C0.999805 10.75 1.0998 10.975 1.2248 11.225L2.1998 10.5H0.924805ZM13.7998 10.5L14.7748 11.225C14.8748 11 14.9748 10.75 15.0748 10.5H13.7998Z" fill="#2A5F9E"/>
<path id="Vector_2" d="M5.8749 9.5H0.649902C0.724902 9.85 0.824902 10.175 0.924902 10.5H2.1999L1.2249 11.225C1.4249 11.65 1.6499 12.025 1.9249 12.4L4.4999 10.5H5.4999V11L2.5749 13.15L2.9249 13.5L5.4999 11.625V15.075C5.8249 15.2 6.1499 15.275 6.4999 15.35V9.5H5.8749ZM15.3499 9.5H9.4999V15.35C9.8499 15.275 10.1749 15.175 10.4999 15.075V11.625L13.0749 13.5C13.4249 13.175 13.7249 12.825 14.0249 12.45L11.3499 10.5H13.0499L14.5749 11.625C14.6499 11.5 14.7249 11.35 14.7749 11.225L13.7999 10.5H15.0749C15.1749 10.175 15.2749 9.85 15.3499 9.5Z" fill="white"/>
<path id="Vector_3" d="M1.9248 12.4C2.1248 12.675 2.3248 12.925 2.5498 13.175L5.4998 11.025V10.525H4.4998L1.9248 12.4ZM11.3748 10.5L14.0498 12.45C14.1498 12.325 14.2248 12.2 14.3248 12.075C14.3498 12.05 14.3498 12.025 14.3748 12.025C14.4498 11.9 14.5498 11.75 14.6248 11.625L13.0498 10.5H11.3748Z" fill="#ED4C5C"/>
<path id="Vector_4" d="M10.4998 0.925049V4.37505L13.0748 2.47505C12.3498 1.80005 11.4748 1.27505 10.4998 0.925049ZM5.4998 0.925049C4.5248 1.27505 3.6498 1.80005 2.9248 2.47505L5.4998 4.40005V0.925049ZM15.0748 5.50005C14.9998 5.25005 14.8998 5.02505 14.7748 4.77505L13.7998 5.50005H15.0748ZM2.1998 5.50005L1.2248 4.77505C1.1248 5.02505 1.0248 5.25005 0.924805 5.50005H2.1998Z" fill="#2A5F9E"/>
<path id="Vector_5" d="M10.1249 6.50015H15.3249C15.2499 6.15015 15.1499 5.82515 15.0499 5.50015H13.7749L14.7499 4.77515C14.5499 4.35015 14.3249 3.97515 14.0499 3.60015L11.4999 5.50015H10.4999V5.00015L13.4249 2.85015L13.0749 2.50015L10.4999 4.37515V0.925147C10.1749 0.800147 9.8499 0.725146 9.4999 0.650146V6.50015H10.1249ZM0.649902 6.50015H6.4999V0.650146C6.1499 0.725146 5.8249 0.825147 5.4999 0.925147V4.37515L2.9249 2.50015C2.5749 2.82515 2.2749 3.17515 1.9749 3.55015L4.6499 5.50015H2.9499L1.4249 4.37515C1.3499 4.50015 1.2749 4.65015 1.2249 4.77515L2.1999 5.50015H0.924902C0.824902 5.82515 0.724902 6.15015 0.649902 6.50015Z" fill="white"/>
<g id="Group">
<path id="Vector_6" d="M14.0749 3.59995C13.8749 3.32495 13.6749 3.07495 13.4499 2.82495L10.4999 4.97495V5.47495H11.4999L14.0749 3.59995ZM4.6249 5.49995L1.9749 3.54995C1.8749 3.67495 1.7999 3.79995 1.6999 3.92495C1.6749 3.94995 1.6749 3.97495 1.6499 3.97495C1.5749 4.09995 1.4749 4.24995 1.3999 4.37495L2.9249 5.49995H4.6249Z" fill="#ED4C5C"/>
<path id="Vector_7" d="M15.35 6.5H9.5V0.65C9.025 0.55 8.525 0.5 8 0.5C7.475 0.5 6.975 0.55 6.5 0.65V6.5H0.65C0.55 6.975 0.5 7.475 0.5 8C0.5 8.525 0.55 9.025 0.65 9.5H6.5V15.35C6.975 15.45 7.475 15.5 8 15.5C8.525 15.5 9.025 15.45 9.5 15.35V9.5H15.35C15.45 9.025 15.5 8.525 15.5 8C15.5 7.475 15.45 6.975 15.35 6.5Z" fill="#ED4C5C"/>
</g>
</g>
<defs>
<clipPath id="clip0_1656_412">
<rect width="16" height="16" fill="white"/>
</clipPath>
</defs>
</svg>
