<svg width="25" height="25" viewBox="0 0 25 25" fill="none" xmlns="http://www.w3.org/2000/svg">
<g clip-path="url(#clip0_309_2475)">
<path d="M24.4868 0.5C22.7153 0.57036 20.9862 0.477236 19.3124 0.745225C16.8889 1.1322 14.9935 2.55079 13.5333 4.57364C13.4326 4.70918 13.3398 4.84783 13.2471 4.97924C13.1958 4.95854 13.1464 4.95544 13.1403 4.93371C12.2606 2.96777 10.6806 1.89685 8.73574 1.29569C7.03276 0.769024 5.28039 0.606575 3.51292 0.577603C2.54151 0.563117 1.5691 0.577603 0.618854 0.577603C0.577539 0.634512 0.542268 0.661415 0.541261 0.688317C0.517076 3.4934 0.253062 6.33988 1.43407 8.98872C1.95403 10.1538 2.65941 11.2351 3.33154 12.3215C3.63384 12.812 5.06173 13.7929 5.44767 13.4969C5.83361 13.201 4.94383 11.7814 4.59719 11.3344C2.80754 9.05805 2.04875 6.44852 2.12131 3.54617C2.15456 2.22279 2.12736 2.2083 3.40913 2.2321C5.10808 2.26314 6.79897 2.3842 8.43142 2.92639C10.8499 3.72828 11.9654 5.21309 12.1236 7.81641C12.1457 8.17855 12.1478 8.5407 12.185 8.90078C12.2294 9.33639 12.4873 9.59713 12.9065 9.62507C13.3257 9.65301 13.6119 9.4471 13.7338 9.01977C13.7545 8.95248 13.768 8.8831 13.7742 8.81283C13.9424 5.79666 15.724 4.02524 18.1918 2.7898C19.6117 2.07793 21.1393 2.229 22.6458 2.24141C22.7244 2.24141 22.8645 2.4349 22.8715 2.54562C23.0831 6.17433 22.1843 9.45538 19.8434 12.2294C18.1566 14.2295 15.983 15.2663 13.4003 15.3718C13.2663 15.378 13.1313 15.3718 12.9972 15.3853C12.4863 15.437 12.1659 15.7816 12.183 16.2534C12.2002 16.7252 12.5357 17.0274 13.0678 17.0211C16.8405 16.9756 19.7931 15.316 21.9283 12.158C23.6172 9.65818 24.4969 6.87172 24.4878 3.80899C24.4838 2.75255 24.4868 1.70233 24.4868 0.5Z" fill="white"/>
<path d="M22.6054 14.7986C22.2517 14.274 21.7841 14.1333 21.3699 14.4324C20.978 14.7159 20.9296 15.2032 21.2631 15.7123C22.957 18.2991 22.8875 19.3338 22.7071 22.4265C22.7035 22.4959 22.6958 22.565 22.684 22.6334C22.674 22.6653 22.6598 22.6956 22.6416 22.7235C19.3314 23.1673 16.3003 22.2164 14.3051 18.8454C14.1653 18.6087 14.0462 18.3597 13.9494 18.1014C13.8698 17.5241 13.8305 16.9374 13.7791 16.3569C13.7337 15.8561 13.4586 15.4929 13.0787 15.4474C13.0262 15.4287 12.9722 15.4141 12.9175 15.4039C12.4237 15.3077 12.0458 15.7092 11.9924 16.3041C11.936 16.9415 11.8917 17.5861 11.798 18.2163C11.7052 18.4522 11.5943 18.6802 11.4664 18.8981C9.47121 22.2692 6.43909 23.2191 3.12885 22.7752C3.11146 22.7474 3.09758 22.7175 3.08754 22.6862C3.07576 22.6178 3.06803 22.5487 3.06437 22.4793C2.88298 19.3865 3.64076 16.5814 5.25406 13.9398C5.75186 13.1255 5.54024 12.9434 5.14825 12.6599C4.73309 12.3609 4.26552 12.5016 3.91283 13.0262C1.58206 16.4914 1.17193 20.384 1.51656 24.4959C2.55246 24.4959 3.60549 24.4814 4.65751 24.4959C5.9855 24.5351 7.30579 24.2759 8.52601 23.7364C10.3529 23.2036 11.9088 22.2123 12.8721 20.2888C13.9604 22.5051 15.8267 23.4964 17.9902 23.9775C18.9983 24.3131 20.0545 24.4709 21.114 24.4442C22.167 24.4255 23.2201 24.4442 24.256 24.4442C24.5996 20.3312 24.9361 18.2628 22.6054 14.7986Z" fill="white"/>
</g>
<defs>
<clipPath id="clip0_309_2475">
<rect width="24" height="24" fill="white" transform="translate(0.5 0.5)"/>
</clipPath>
</defs>
</svg>
